<?xml version="1.0" encoding="utf-8"?>
<!DOCTYPE svg PUBLIC "-//W3C//DTD SVG 1.1//EN" "http://www.w3.org/Graphics/SVG/1.1/DTD/svg11.dtd">
<svg version="1.1"
	 id="Layer_1" xmlns:rdf="http://www.w3.org/1999/02/22-rdf-syntax-ns#" xmlns:cc="http://web.resource.org/cc/" xmlns:svg="http://www.w3.org/2000/svg" xmlns:sodipodi="http://sodipodi.sourceforge.net/DTD/sodipodi-0.dtd" xmlns:dc="http://purl.org/dc/elements/1.1/" xmlns:inkscape="http://www.inkscape.org/namespaces/inkscape" xmlns:ns1="http://sozi.baierouge.fr"
	 xmlns="http://www.w3.org/2000/svg" xmlns:xlink="http://www.w3.org/1999/xlink" x="0px" y="0px" viewBox="0 0 2560 1600"
	 enable-background="new 0 0 2560 1600" xml:space="preserve">
<g>
	<circle cx="776.8179" cy="1035.698" r="18.1272"/>
	<circle cx="527.6901" cy="849.7261" r="15.7682"/>
	<circle cx="454.7875" cy="500.8103" r="19.5229"/>
	<circle cx="595.9814" cy="973.7961" r="16.4636"/>
	<circle cx="446.8484" cy="602.1587" r="17.5304"/>
	<circle cx="481.592" cy="478.1777" r="15.5586"/>
	<circle cx="713.8268" cy="885.2955" r="15.3456"/>
	<circle cx="723.0325" cy="410.4242" r="15.7458"/>
	<circle cx="188.9672" cy="303.0468" r="15.6459"/>
	<circle cx="638.5414" cy="948.8837" r="21.427"/>
	<circle cx="346.9306" cy="426.3098" r="20.5361"/>
	<circle cx="561.9498" cy="1028.2908" r="15.3263"/>
	<circle cx="667.7729" cy="919.4948" r="16.0211"/>
	<circle cx="707.0522" cy="383.7913" r="15.3136"/>
	<circle cx="286.3969" cy="615.258" r="16.0764"/>
	<circle cx="322.3844" cy="686.2261" r="17.8712"/>
	<circle cx="508.208" cy="351.9128" r="16.5073"/>
	<circle cx="264.516" cy="324.8578" r="15.3419"/>
	<circle cx="483.6508" cy="383.7101" r="17.9943"/>
	<circle cx="645.5994" cy="883.0685" r="15.5175"/>
	<circle cx="523.2827" cy="962.7899" r="16.7304"/>
	<circle cx="529.2944" cy="295.5073" r="18.5728"/>
	<circle cx="506.6223" cy="554.4176" r="16.0317"/>
	<circle cx="709.6901" cy="1024.4805" r="16.1001"/>
	<circle cx="678.477" cy="1235.3674" r="16.1431"/>
	<circle cx="637.7681" cy="443.4324" r="17.8266"/>
	<circle cx="445.4063" cy="413.561" r="19.1782"/>
	<circle cx="565.5784" cy="948.9897" r="22.5048"/>
	<circle cx="645.7875" cy="1324.7177" r="15.7118"/>
	<circle cx="471.4296" cy="299.7642" r="18.4026"/>
	<circle cx="608.8102" cy="920.825" r="15.5807"/>
	<circle cx="489.655" cy="585.7699" r="18.0661"/>
	<circle cx="418.0791" cy="494.3325" r="17.7527"/>
	<circle cx="364.4748" cy="469.3196" r="22.0261"/>
	<circle cx="224.2862" cy="278.552" r="22.0081"/>
	<circle cx="592.2895" cy="1055.5587" r="18.414"/>
	<circle cx="366.3709" cy="340.3224" r="16.6748"/>
	<circle cx="404.7575" cy="439.0505" r="17.2482"/>
	<circle cx="275.7691" cy="296.3424" r="15.3136"/>
	<circle cx="312.7198" cy="440.3562" r="16.4461"/>
	<circle cx="349.1981" cy="532.2362" r="16.4459"/>
	<circle cx="334.8838" cy="379.7953" r="18.1241"/>
	<circle cx="731.9171" cy="1114.7316" r="19.4744"/>
	<circle cx="605.7723" cy="1086.4741" r="15.3136"/>
	<circle cx="453.4592" cy="535.6215" r="15.3136"/>
	<circle cx="527.6942" cy="488.5271" r="16.1139"/>
	<circle cx="792.7644" cy="1006.3041" r="15.3136"/>
	<circle cx="541.5714" cy="397.6669" r="16.4567"/>
	<circle cx="374.3756" cy="512.8776" r="15.3136"/>
	<circle cx="480.204" cy="439.9652" r="16.4916"/>
	<circle cx="297.6577" cy="516.0953" r="15.4747"/>
	<circle cx="253.9701" cy="484.7616" r="20.3745"/>
	<circle cx="687.2005" cy="1133.589" r="17.5418"/>
	<circle cx="546.0745" cy="1002.0842" r="15.3136"/>
	<circle cx="462.732" cy="344.8711" r="16.8792"/>
	<circle cx="457.2277" cy="568.7595" r="17.4443"/>
	<circle cx="556.2604" cy="426.4971" r="15.8999"/>
	<circle cx="578.8991" cy="456.1893" r="15.3794"/>
	<circle cx="322.4657" cy="481.1761" r="18.9595"/>
	<circle cx="626.8192" cy="1174.1619" r="18.1113"/>
	<circle cx="579.6815" cy="910.5307" r="15.3136"/>
	<circle cx="702.5228" cy="1205.4369" r="22.2501"/>
	<circle cx="382.9204" cy="414.8966" r="15.3136"/>
	<circle cx="431.6394" cy="381.9358" r="15.3136"/>
	<circle cx="398.8535" cy="747.0857" r="16.7843"/>
	<circle cx="338.4148" cy="595.8865" r="16.3671"/>
	<circle cx="626.2394" cy="983.5036" r="15.3136"/>
	<circle cx="243.6483" cy="533.3672" r="16.3023"/>
	<circle cx="417.846" cy="537.2074" r="15.5536"/>
	<circle cx="617.3808" cy="1122.5999" r="15.5591"/>
	<circle cx="487.427" cy="524.6309" r="19.4043"/>
	<circle cx="643.5435" cy="1261.9166" r="16.6956"/>
	<circle cx="349.4719" cy="625.575" r="15.3136"/>
	<circle cx="510.9821" cy="408.8586" r="16.1157"/>
	<circle cx="265.9124" cy="363.5944" r="18.0364"/>
	<circle cx="516.2724" cy="451.9159" r="17.0343"/>
	<circle cx="601.4686" cy="836.8279" r="15.4321"/>
	<circle cx="758.7806" cy="1070.9265" r="17.0496"/>
	<circle cx="367.8215" cy="301.5603" r="15.3502"/>
	<circle cx="819.886" cy="960.4575" r="16.086"/>
	<circle cx="705.1247" cy="971.7555" r="16.889"/>
	<circle cx="705.3721" cy="1164.2667" r="18.114"/>
	<circle cx="308.2378" cy="344.1404" r="16.4256"/>
	<circle cx="667.2457" cy="1089.2786" r="15.5113"/>
	<circle cx="827.8406" cy="1006.264" r="16.1829"/>
	<circle cx="676.837" cy="1053.5698" r="17.6586"/>
	<circle cx="739.9699" cy="964.9305" r="18.6184"/>
	<circle cx="286.831" cy="649.4717" r="18.14"/>
	<circle cx="540.4783" cy="531.7625" r="15.9062"/>
	<circle cx="296.609" cy="397.644" r="17.6764"/>
	<circle cx="395.8693" cy="602.2693" r="20.7078"/>
	<circle cx="603.3801" cy="283.2898" r="16.7778"/>
	<circle cx="398.6177" cy="364.7845" r="18.0576"/>
	<circle cx="606.9682" cy="1024.3054" r="16.0073"/>
	<circle cx="444.1443" cy="457.323" r="15.437"/>
	<circle cx="346.6807" cy="726.5194" r="15.6879"/>
	<circle cx="556.6933" cy="880.6762" r="18.1518"/>
	<circle cx="421.6983" cy="307.6469" r="17.4339"/>
	<circle cx="663.6976" cy="989.1258" r="16.2526"/>
	<circle cx="652.2803" cy="401.0835" r="19.698"/>
	<circle cx="594.8372" cy="502.6707" r="16.5469"/>
	<circle cx="531.9056" cy="912.3135" r="18.9161"/>
	<circle cx="650.0545" cy="1366.2352" r="19.7029"/>
	<circle cx="394.1086" cy="556.9384" r="15.3136"/>
	<circle cx="324.871" cy="653.1346" r="15.3136"/>
	<circle cx="313.437" cy="299.6007" r="15.6459"/>
	<circle cx="556.8011" cy="500.379" r="15.3136"/>
	<circle cx="744.9847" cy="273.1808" r="19.531"/>
	<circle cx="611.9151" cy="1256.9944" r="15.3136"/>
	<circle cx="294.2288" cy="562.5122" r="17.0491"/>
	<circle cx="391.7049" cy="320.7919" r="15.3136"/>
	<circle cx="330.7939" cy="562.0784" r="16.8707"/>
	<circle cx="631.5494" cy="843.1876" r="15.3136"/>
	<circle cx="661.5724" cy="1164.5089" r="17.9577"/>
	<circle cx="661.6779" cy="1201.0372" r="18.5707"/>
	<circle cx="774.1718" cy="955.1385" r="16.9576"/>
	<circle cx="267.5659" cy="580.8543" r="15.3136"/>
	<circle cx="219.3107" cy="315.8575" r="15.6279"/>
	<circle cx="634.2933" cy="1069.0798" r="16.5719"/>
	<circle cx="649.8229" cy="1031.7325" r="17.0779"/>
	<circle cx="809.0883" cy="1046.728" r="15.9761"/>
	<circle cx="270.8691" cy="448.5352" r="15.3636"/>
	<circle cx="730.9697" cy="929.7015" r="17.7421"/>
	<circle cx="729.5065" cy="1000.1057" r="15.3136"/>
	<circle cx="721.6364" cy="1070.8047" r="17.3215"/>
	<circle cx="784.5812" cy="1107.4216" r="16.4333"/>
	<circle cx="603.6504" cy="1210.2026" r="15.9691"/>
	<circle cx="741.877" cy="1182.8781" r="16.2791"/>
	<circle cx="674.6583" cy="872.7661" r="15.3136"/>
	<circle cx="759.4776" cy="993.4672" r="14.9931"/>
	<circle cx="172.5677" cy="323.0417" r="10.2141"/>
	<circle cx="504.743" cy="928.9341" r="11.0177"/>
	<circle cx="567.6014" cy="313.2723" r="13.8362"/>
	<circle cx="415.9982" cy="342.4865" r="10.2141"/>
	<circle cx="317.8576" cy="534.9301" r="12.1439"/>
	<circle cx="750.1599" cy="1016.889" r="10.2141"/>
	<circle cx="515.0806" cy="994.9345" r="14.3149"/>
	<circle cx="157.5664" cy="308.123" r="10.9426"/>
	<circle cx="664.6182" cy="462.9637" r="12.1138"/>
	<circle cx="529.7645" cy="1027.412" r="11.939"/>
	<circle cx="105.1421" cy="335.3823" r="15.6417"/>
	<circle cx="366.9236" cy="554.9102" r="11.5418"/>
	<circle cx="238.7195" cy="598.7263" r="10.4376"/>
	<circle cx="547.1086" cy="558.1935" r="11.3437"/>
	<circle cx="578.1233" cy="481.7711" r="10.2141"/>
	<circle cx="574.8866" cy="524.6371" r="12.8643"/>
	<circle cx="786.0231" cy="1069.8523" r="10.2141"/>
	<circle cx="322.7873" cy="407.2659" r="10.2141"/>
	<circle cx="630.2245" cy="473.7592" r="10.4351"/>
	<circle cx="339.9669" cy="506.098" r="11.2744"/>
	<circle cx="651.9385" cy="1398.5133" r="12.4716"/>
	<circle cx="669.2719" cy="1415.8467" r="8.4716"/>
	<circle cx="685.2719" cy="1423.5133" r="6.1382"/>
	<circle cx="631.2719" cy="1385.5133" r="6.1382"/>
	<circle cx="618.9385" cy="1325.8467" r="6.1382"/>
	<circle cx="603.6052" cy="1298.8467" r="6.1382"/>
	<circle cx="591.9385" cy="1266.5133" r="6.1382"/>
	<circle cx="595.6052" cy="1236.1799" r="6.1382"/>
	<circle cx="623.2719" cy="1234.1799" r="6.1382"/>
	<circle cx="591.6052" cy="1188.1799" r="6.1382"/>
	<circle cx="590.9385" cy="1145.1799" r="6.1382"/>
	<circle cx="589.2719" cy="1125.5133" r="6.1382"/>
	<circle cx="587.2719" cy="1105.1799" r="6.1382"/>
	<circle cx="582.2719" cy="1085.1799" r="6.1382"/>
	<circle cx="564.9385" cy="1067.5133" r="6.1382"/>
	<circle cx="547.9385" cy="1057.5133" r="6.1382"/>
	<circle cx="697.9385" cy="1425.5133" r="4.4716"/>
	<circle cx="657.9495" cy="363.8383" r="12.8523"/>
	<circle cx="620.7758" cy="492.1198" r="10.2141"/>
	<circle cx="294.797" cy="490.4249" r="10.2141"/>
	<circle cx="490.764" cy="963.2112" r="11.9889"/>
	<circle cx="670.2863" cy="1277.2894" r="11.8501"/>
	<circle cx="435.6279" cy="771.2349" r="12.2311"/>
	<circle cx="500.0415" cy="299.2371" r="10.2141"/>
	<circle cx="293.491" cy="276.1656" r="11.541"/>
	<circle cx="244.9421" cy="344.6646" r="10.2141"/>
	<circle cx="646.7421" cy="1296.7144" r="12.3078"/>
	<circle cx="511.6447" cy="891.2911" r="10.2805"/>
	<circle cx="480.9974" cy="413.2712" r="10.2141"/>
	<circle cx="404.5916" cy="392.5437" r="10.3371"/>
	<circle cx="681.6433" cy="379.4806" r="10.4584"/>
	<circle cx="811.3228" cy="1092.7532" r="14.0672"/>
	<circle cx="637.0723" cy="1095.7214" r="10.2141"/>
	<circle cx="316.429" cy="716.5291" r="12.8357"/>
	<circle cx="667.5824" cy="962.9457" r="10.2141"/>
	<circle cx="586.4653" cy="1007.9594" r="10.2141"/>
	<circle cx="700.8488" cy="1089.6003" r="10.7035"/>
	<circle cx="644.3936" cy="1234.8857" r="10.3487"/>
	<circle cx="571.3823" cy="816.8932" r="13.2684"/>
	<circle cx="692.1605" cy="407.1844" r="12.4174"/>
	<circle cx="259.4151" cy="396.6656" r="12.9498"/>
	<circle cx="252.4646" cy="558.3751" r="10.2141"/>
	<circle cx="568.2325" cy="398.3826" r="10.2141"/>
	<circle cx="517.4825" cy="379.3826" r="10.2141"/>
	<circle cx="321.1454" cy="627.8033" r="10.2903"/>
	<circle cx="224.8987" cy="512.13" r="11.5427"/>
	<circle cx="625.5344" cy="1308.5322" r="10.2141"/>
	<circle cx="630.4309" cy="1012.1395" r="10.422"/>
	<circle cx="720.9724" cy="310.9607" r="11.7412"/>
	<circle cx="365.9756" cy="594.3612" r="10.2141"/>
	<circle cx="423.8516" cy="617.6801" r="10.2141"/>
	<circle cx="617.4393" cy="1283.2585" r="11.5253"/>
	<circle cx="264.4738" cy="423.7698" r="10.2141"/>
	<circle cx="491.7393" cy="329.9116" r="10.9749"/>
	<circle cx="399.5085" cy="290.126" r="10.4716"/>
	<circle cx="354.5085" cy="280.126" r="5.4716"/>
	<circle cx="372.5085" cy="275.126" r="5.4716"/>
	<circle cx="383.0085" cy="284.626" r="5.4716"/>
	<circle cx="337.2585" cy="328.876" r="8.4716"/>
	<circle cx="394.2585" cy="271.626" r="5.4716"/>
	<circle cx="408.0085" cy="274.876" r="5.4716"/>
	<circle cx="449.7585" cy="272.126" r="3.9716"/>
	<circle cx="462.2585" cy="274.626" r="3.9716"/>
	<circle cx="622.7211" cy="1347.0398" r="12.4999"/>
	<circle cx="428.0553" cy="277.4312" r="11.3149"/>
	<circle cx="546.863" cy="975.8275" r="10.2141"/>
	<circle cx="598.434" cy="874.0825" r="10.8979"/>
	<circle cx="360.3665" cy="367.3981" r="10.2141"/>
	<circle cx="552.3918" cy="841.6695" r="10.2141"/>
	<circle cx="227.1786" cy="579.3058" r="12.0199"/>
	<circle cx="613.9132" cy="888.4391" r="10.2141"/>
	<circle cx="212.2584" cy="529.8383" r="10.2141"/>
	<circle cx="138.3891" cy="330.1599" r="15.9875"/>
	<circle cx="788.0414" cy="979.8713" r="11.3986"/>
	<circle cx="446.8583" cy="796.2523" r="10.6999"/>
	<circle cx="599.5234" cy="1166.5941" r="10.2141"/>
	<circle cx="599.4407" cy="479.0846" r="7.4843"/>
	<circle cx="666.4783" cy="430.3905" r="9.3128"/>
	<circle cx="703.9783" cy="426.3905" r="6.8128"/>
	<circle cx="683.9783" cy="425.6405" r="6.8128"/>
	<circle cx="231.2622" cy="616.1796" r="5.6447"/>
	<circle cx="234.2622" cy="630.8463" r="5.6447"/>
	<circle cx="237.2622" cy="644.8463" r="5.6447"/>
	<circle cx="243.9289" cy="658.5129" r="5.6447"/>
	<circle cx="249.5956" cy="674.1796" r="5.6447"/>
	<circle cx="256.5956" cy="685.8463" r="5.6447"/>
	<circle cx="468.9289" cy="697.1796" r="5.6447"/>
	<circle cx="412.2622" cy="770.1796" r="5.6447"/>
	<circle cx="454.5956" cy="771.1796" r="5.6447"/>
	<circle cx="421.5956" cy="736.8463" r="5.6447"/>
	<circle cx="487.2622" cy="695.8463" r="5.6447"/>
	<circle cx="519.5955" cy="716.1796" r="5.6447"/>
	<circle cx="533.9289" cy="715.1796" r="5.6447"/>
	<circle cx="564.2622" cy="730.5129" r="5.6447"/>
	<circle cx="548.5955" cy="735.1796" r="5.6447"/>
	<circle cx="578.2622" cy="729.8463" r="5.6447"/>
	<circle cx="517.5955" cy="703.8463" r="5.6447"/>
	<circle cx="503.2622" cy="698.5129" r="5.6447"/>
	<circle cx="653.6743" cy="1119.0601" r="10.2064"/>
	<circle cx="693.3947" cy="363.6558" r="9.0168"/>
	<circle cx="732.7136" cy="368.7606" r="9.0168"/>
	<circle cx="742.9365" cy="392.5437" r="9.0168"/>
	<circle cx="753.1263" cy="410.5972" r="9.0168"/>
	<circle cx="671.9783" cy="342.4865" r="9.0168"/>
	<circle cx="693.3947" cy="342.4865" r="9.0168"/>
	<circle cx="624.76" cy="1044.0166" r="10.2431"/>
	<circle cx="841.8691" cy="966.8688" r="6.8128"/>
	<circle cx="715.4955" cy="950.4431" r="6.8128"/>
	<circle cx="447.8206" cy="286.752" r="8.5548"/>
	<circle cx="691.853" cy="945.0684" r="8.8535"/>
	<circle cx="691.2396" cy="914.6249" r="7.9456"/>
	<circle cx="538.0978" cy="322.951" r="9.531"/>
	<circle cx="574.8866" cy="290.213" r="9.531"/>
	<circle cx="565.7577" cy="853.4342" r="7.5919"/>
	<circle cx="734.7143" cy="1210.4368" r="9.3149"/>
	<circle cx="350.2534" cy="651.0723" r="10.1524"/>
	<circle cx="552.5686" cy="471.204" r="7.3727"/>
	<circle cx="691.4722" cy="1002.7924" r="12.2242"/>
	<circle cx="371.9588" cy="741.6431" r="7.3849"/>
	<circle cx="352.9588" cy="750.3098" r="7.3849"/>
	<circle cx="422.7308" cy="721.9396" r="7.3849"/>
	<circle cx="455.3975" cy="816.9396" r="7.3849"/>
	<circle cx="466.7308" cy="827.9396" r="5.3849"/>
	<circle cx="480.0641" cy="834.9396" r="5.3849"/>
	<circle cx="485.7308" cy="824.9396" r="5.3849"/>
	<circle cx="500.3975" cy="826.9396" r="5.3849"/>
	<circle cx="507.7308" cy="839.6062" r="5.3849"/>
	<circle cx="531.0641" cy="824.2729" r="8.0516"/>
	<circle cx="545.3975" cy="811.2729" r="8.0516"/>
	<circle cx="663.659" cy="276.955" r="8.3151"/>
	<circle cx="317.8613" cy="581.9192" r="6.8128"/>
	<circle cx="706.9526" cy="1106.4977" r="6.8128"/>
	<circle cx="613.9927" cy="457.1377" r="9.6162"/>
	<circle cx="484.9219" cy="353.1727" r="6.8128"/>
	<circle cx="535.8835" cy="938.9521" r="8.0178"/>
	<circle cx="633.3475" cy="1138.2704" r="6.8128"/>
	<circle cx="686.4044" cy="1077.5209" r="6.9676"/>
	<circle cx="556.0266" cy="921.2664" r="6.8128"/>
	<circle cx="266.3565" cy="516.1443" r="11.6087"/>
	<circle cx="264.3321" cy="609.1699" r="6.8128"/>
	<circle cx="581.5942" cy="428.455" r="8.4598"/>
	<circle cx="407.2466" cy="410.889" r="8.1994"/>
	<circle cx="679.7421" cy="1110.4045" r="6.8128"/>
	<circle cx="472.1549" cy="603.4535" r="6.8128"/>
	<circle cx="487.427" cy="615.9827" r="6.8128"/>
	<circle cx="497.1506" cy="631.3345" r="6.8128"/>
	<circle cx="516.2724" cy="588.732" r="6.8128"/>
	<circle cx="538.0978" cy="575.1063" r="6.8128"/>
	<circle cx="212.5172" cy="556.3608" r="10.0626"/>
	<circle cx="657.8516" cy="1069.0271" r="6.8128"/>
	<circle cx="729.794" cy="250.3022" r="7.9314"/>
	<circle cx="711.544" cy="248.0522" r="4.9314"/>
	<circle cx="718.794" cy="261.5522" r="4.9314"/>
	<circle cx="725.294" cy="293.0522" r="4.9314"/>
	<circle cx="685.544" cy="304.5522" r="4.9314"/>
	<circle cx="700.544" cy="303.8022" r="4.9314"/>
	<circle cx="739.294" cy="300.8022" r="4.9314"/>
	<circle cx="768.044" cy="289.0522" r="4.9314"/>
	<circle cx="779.794" cy="287.0522" r="4.9314"/>
	<circle cx="704.294" cy="258.3022" r="4.9314"/>
	<circle cx="721.044" cy="240.0522" r="4.9314"/>
	<circle cx="701.794" cy="239.8022" r="4.9314"/>
	<circle cx="623.5389" cy="1366.3352" r="6.8128"/>
	<circle cx="499.3186" cy="648.3912" r="7.2605"/>
	<circle cx="394.8726" cy="467.3422" r="7.4969"/>
	<circle cx="674.4872" cy="253.4985" r="9.7973"/>
	<circle cx="761.5149" cy="1104.5361" r="6.8128"/>
	<circle cx="287.8331" cy="473.3068" r="8.2664"/>
	<circle cx="321.654" cy="735.4702" r="6.8128"/>
	<circle cx="296.3206" cy="716.4702" r="6.8128"/>
	<circle cx="300.9873" cy="702.1368" r="6.8128"/>
	<circle cx="347.654" cy="701.4702" r="6.8128"/>
	<circle cx="294.2288" cy="682.0266" r="6.8128"/>
	<circle cx="610.9233" cy="429.9312" r="12.2221"/>
	<circle cx="578.5403" cy="837.8142" r="7.5173"/>
	<circle cx="655.7476" cy="1135.9525" r="6.8128"/>
	<circle cx="844.8479" cy="990.7865" r="6.8128"/>
	<circle cx="285.206" cy="347.2323" r="6.8128"/>
	<circle cx="527.7015" cy="335.562" r="6.8128"/>
	<circle cx="514.4515" cy="321.312" r="6.8128"/>
	<circle cx="288.1732" cy="433.2853" r="7.7012"/>
	<circle cx="332.3083" cy="282.4608" r="9.8472"/>
	<circle cx="379.219" cy="580.2564" r="6.8929"/>
	<circle cx="753.6125" cy="1157.1489" r="9.288"/>
	<circle cx="732.9459" cy="1148.4823" r="9.288"/>
	<circle cx="762.0453" cy="1133.6666" r="9.288"/>
	<circle cx="349.687" cy="678.2734" r="10.5661"/>
	<circle cx="364.3272" cy="573.0802" r="6.8128"/>
	<circle cx="338.0296" cy="351.7224" r="10.1245"/>
	<circle cx="422.7308" cy="463.3661" r="6.8128"/>
	<circle cx="693.5716" cy="929.4966" r="6.8128"/>
	<circle cx="396.0887" cy="526.9833" r="8.4863"/>
	<circle cx="732.0226" cy="1044.2936" r="11.1515"/>
	<circle cx="627.5997" cy="1216.4513" r="8.782"/>
	<circle cx="502.4042" cy="978.0321" r="6.8128"/>
	<circle cx="376.4066" cy="377.2909" r="7.4325"/>
	<circle cx="644.9619" cy="920.5176" r="6.8128"/>
	<circle cx="421.0511" cy="586.9277" r="8.7793"/>
	<circle cx="666.5887" cy="1255.0052" r="6.8128"/>
	<circle cx="686.5887" cy="1258.3386" r="6.8128"/>
	<circle cx="701.9221" cy="1253.0052" r="6.8128"/>
	<circle cx="699.5887" cy="1271.3386" r="6.8128"/>
	<circle cx="620.9292" cy="821.0974" r="9.1969"/>
	<circle cx="495.3569" cy="944.0942" r="6.8128"/>
	<circle cx="337.7973" cy="458.3654" r="6.8128"/>
	<circle cx="706.0241" cy="912.1426" r="7.0459"/>
	<circle cx="279.5133" cy="529.0381" r="6.8128"/>
	<circle cx="521.2264" cy="571.9844" r="6.8128"/>
	<circle cx="529.2944" cy="554.9102" r="4.4398"/>
	<circle cx="626.0807" cy="290.827" r="7.0168"/>
	<circle cx="556.3845" cy="290.213" r="7.0168"/>
	<circle cx="617.6537" cy="260.0238" r="7.0168"/>
	<circle cx="531.7286" cy="880.7146" r="6.8128"/>
	<circle cx="428.7497" cy="357.7006" r="9.0933"/>
	<circle cx="460.2161" cy="375.5734" r="6.8128"/>
	<circle cx="333.704" cy="309.2777" r="6.8128"/>
	<circle cx="110.829" cy="360.1111" r="2.9378"/>
	<circle cx="122.204" cy="346.7361" r="2.9378"/>
	<circle cx="129.704" cy="352.9861" r="2.9378"/>
	<circle cx="120.954" cy="354.3611" r="2.9378"/>
	<circle cx="103.704" cy="354.7361" r="2.9378"/>
	<circle cx="101.454" cy="362.1111" r="2.9378"/>
	<circle cx="93.329" cy="365.2361" r="2.9378"/>
	<circle cx="84.329" cy="369.4861" r="2.9378"/>
	<circle cx="74.329" cy="371.6111" r="2.9378"/>
	<circle cx="68.579" cy="377.6111" r="2.9378"/>
	<circle cx="59.579" cy="377.9861" r="2.9378"/>
	<circle cx="51.079" cy="382.6111" r="2.9378"/>
	<circle cx="42.329" cy="383.9861" r="2.9378"/>
	<circle cx="29.954" cy="388.4861" r="1.8128"/>
	<circle cx="35.829" cy="386.7361" r="1.8128"/>
	<circle cx="23.954" cy="390.3611" r="1.8128"/>
	<circle cx="16.829" cy="391.9861" r="1.8128"/>
	<circle cx="10.204" cy="393.7361" r="1.8128"/>
	<circle cx="746.0374" cy="313.3806" r="7.089"/>
	<circle cx="749.0685" cy="447.5216" r="7.089"/>
	<circle cx="809.8726" cy="989.6675" r="8.2771"/>
	<circle cx="535.6258" cy="465.8491" r="6.8128"/>
	<circle cx="656.3511" cy="846.4025" r="9.6957"/>
	<circle cx="517.7628" cy="531.3611" r="6.8128"/>
	<circle cx="478.9678" cy="554.4176" r="6.8128"/>
	<circle cx="507.7211" cy="505.2264" r="6.8128"/>
	<circle cx="299.3129" cy="591.1752" r="11.2513"/>
	<circle cx="622.4009" cy="405.6108" r="10.5225"/>
	<circle cx="607.1857" cy="1144.3204" r="8.4352"/>
	<circle cx="440.542" cy="328.0651" r="10.3507"/>
	<circle cx="691.9787" cy="250.3146" r="7.9816"/>
	<circle cx="561.2358" cy="542.8695" r="7.6361"/>
	<circle cx="363.2374" cy="397.9358" r="10.669"/>
	<circle cx="254.3615" cy="264.7448" r="10.0633"/>
	<circle cx="550.4496" cy="457.1776" r="6.8128"/>
	<circle cx="455.963" cy="388.6986" r="6.9843"/>
	<circle cx="409.1815" cy="467.5046" r="6.8128"/>
	<circle cx="698.023" cy="1065.8174" r="6.8128"/>
	<circle cx="883.2421" cy="221.6855" r="18.8516"/>
	<circle cx="984.35" cy="197.5835" r="18.5629"/>
	<circle cx="916.4516" cy="282.8009" r="19.3476"/>
	<circle cx="966.8541" cy="242.9607" r="18.5979"/>
	<circle cx="1040.4038" cy="203.9838" r="19.3134"/>
	<circle cx="933.2349" cy="208.9203" r="19.6618"/>
	<circle cx="874.383" cy="304.8545" r="18.7432"/>
	<circle cx="1007.4554" cy="227.3623" r="18.4933"/>
	<circle cx="922.7691" cy="245.6995" r="18.2879"/>
	<circle cx="855.7942" cy="197.3295" r="12.5314"/>
	<circle cx="883.2445" cy="264.5914" r="13.4601"/>
	<circle cx="1018.2777" cy="181.4197" r="12.2888"/>
	<circle cx="898.8052" cy="188.6494" r="12.7172"/>
	<circle cx="1066.6171" cy="186.4957" r="12.198"/>
	<circle cx="951.1676" cy="278.7887" r="12.751"/>
	<circle cx="994.515" cy="259.657" r="13.6562"/>
	<circle cx="1036.4518" cy="245.23" r="12.724"/>
	<circle cx="864.2377" cy="276.0919" r="8.7553"/>
	<circle cx="903.7465" cy="307.7002" r="8.606"/>
	<circle cx="921.2169" cy="183.8546" r="8.1361"/>
	<circle cx="896.2482" cy="245.3325" r="8.1361"/>
	<circle cx="961.3589" cy="212.317" r="8.6666"/>
	<circle cx="972.1283" cy="271.9697" r="9.2909"/>
	<circle cx="959.8942" cy="186.8716" r="8.1361"/>
	<circle cx="874.6152" cy="187.2333" r="8.8265"/>
	<circle cx="864.2451" cy="330.0211" r="8.3886"/>
	<circle cx="1046.9205" cy="175.4773" r="8.1517"/>
	<circle cx="1016.27" cy="258.3838" r="8.1361"/>
	<circle cx="871.7241" cy="245.8591" r="7.4364"/>
	<circle cx="1011.3369" cy="200.6581" r="8.1634"/>
	<circle cx="888.6869" cy="282.6771" r="5.4268"/>
	<circle cx="851.5096" cy="297.0447" r="5.4268"/>
	<circle cx="935.0032" cy="182.3988" r="5.7269"/>
	<circle cx="947.7994" cy="257.593" r="5.4268"/>
	<circle cx="842.1991" cy="209.0626" r="5.4268"/>
	<circle cx="907.1292" cy="213.3057" r="6.4628"/>
	<circle cx="1068.438" cy="206.7256" r="6.0752"/>
	<circle cx="1086.8547" cy="185.6423" r="4.4918"/>
	<circle cx="1097.1047" cy="183.4756" r="3.2418"/>
	<circle cx="1105.2714" cy="181.2256" r="2.5752"/>
	<circle cx="1111.8547" cy="179.6423" r="1.7418"/>
	<circle cx="1116.6047" cy="178.1423" r="1.0543"/>
	<circle cx="1119.1699" cy="177.5659" r="0.5231"/>
	<circle cx="1121.1699" cy="176.9722" r="0.5231"/>
	<circle cx="828.9559" cy="207.5143" r="7.613"/>
	<circle cx="811.1089" cy="204.1016" r="7.4212"/>
	<circle cx="1050.5306" cy="226.9169" r="5.7562"/>
	<circle cx="947.5529" cy="179.7275" r="5.8042"/>
	<circle cx="1061.8397" cy="225.8932" r="5.5991"/>
	<circle cx="983.869" cy="223.3811" r="5.4268"/>
	<circle cx="884.081" cy="332.9023" r="8.6955"/>
	<circle cx="939.0964" cy="265.1976" r="5.4268"/>
	<circle cx="901.9388" cy="260.0238" r="5.7841"/>
	<circle cx="998.2504" cy="176.1055" r="7.0208"/>
	<circle cx="1073.5562" cy="303.4993" r="4.2129"/>
	<circle cx="1065.0892" cy="306.0771" r="4.2611"/>
	<circle cx="1040.7382" cy="301.1714" r="4.3041"/>
	<circle cx="1049.2732" cy="310.5625" r="4.3758"/>
	<circle cx="1057.2682" cy="302.8823" r="4.1874"/>
	<circle cx="1031.8989" cy="297.2041" r="4.308"/>
	<circle cx="1056.4342" cy="310.8956" r="2.793"/>
	<circle cx="1081.1917" cy="303.4618" r="3.3365"/>
	<circle cx="1047.876" cy="300.8385" r="2.8415"/>
	<circle cx="1064.1136" cy="299.0865" r="2.7972"/>
	<circle cx="1076.6473" cy="297.2122" r="2.793"/>
	<circle cx="1042.1609" cy="308.7571" r="2.9622"/>
	<circle cx="1081.7556" cy="298.2931" r="1.8629"/>
	<circle cx="1072.051" cy="296.3967" r="1.8751"/>
	<circle cx="1068.844" cy="298.5424" r="1.9644"/>
	<circle cx="1025.1545" cy="298.3555" r="2.3325"/>
	<circle cx="764.6677" cy="454.6106" r="3.6076"/>
	<circle cx="737.5273" cy="453.0402" r="3.6076"/>
	<circle cx="681.6433" cy="450.3647" r="3.6076"/>
	<circle cx="670.3099" cy="488.6981" r="3.6076"/>
	<circle cx="680.4766" cy="483.6981" r="3.6076"/>
	<circle cx="689.5591" cy="480.5" r="3.6076"/>
	<circle cx="698.5591" cy="478.6666" r="3.6076"/>
	<circle cx="711.2258" cy="470.3334" r="3.6076"/>
	<circle cx="681.2258" cy="473.3334" r="3.6076"/>
	<circle cx="650.2258" cy="477.6666" r="7.4409"/>
	<circle cx="771.8829" cy="456.8606" r="2.3548"/>
	<circle cx="756.1575" cy="436.825" r="3.6076"/>
	<circle cx="761.0601" cy="445.825" r="3.6076"/>
	<circle cx="769.3583" cy="445.825" r="3.6076"/>
	<circle cx="1052.7794" cy="298.1478" r="1.9581"/>
	<circle cx="1062.3226" cy="311.5972" r="1.9134"/>
	<circle cx="1036.288" cy="306.3632" r="1.876"/>
	<circle cx="1027.8877" cy="301.0406" r="1.2426"/>
	<circle cx="1070.8304" cy="309.5354" r="1.6581"/>
	<circle cx="1058.2805" cy="296.9269" r="1.387"/>
	<circle cx="1048.1538" cy="304.9338" r="1.2632"/>
	<circle cx="1035.5846" cy="303.325" r="1.2426"/>
	<circle cx="1045.428" cy="314.7584" r="1.3156"/>
	<circle cx="1051.9872" cy="304.749" r="1.4138"/>
	<circle cx="1045.6204" cy="304.428" r="1.3204"/>
	<circle cx="1085.3822" cy="299.7908" r="1.3839"/>
	<circle cx="732.4605" cy="195.8076" r="11.9722"/>
	<circle cx="760.2455" cy="190.6919" r="12.0049"/>
	<circle cx="794.1848" cy="180.6335" r="8.6066"/>
	<circle cx="710.4611" cy="189.2281" r="7.9999"/>
	<circle cx="717.3644" cy="205.2635" r="5.8033"/>
	<circle cx="807.5956" cy="176.9288" r="5.3065"/>
	<circle cx="694.2567" cy="196.3883" r="6.4286"/>
	<circle cx="779.2773" cy="180.8932" r="6.3032"/>
	<circle cx="627.7197" cy="216.9409" r="6.9526"/>
	<circle cx="686.3214" cy="222.0035" r="5.5391"/>
	<circle cx="747.2218" cy="204.7887" r="5.3065"/>
	<circle cx="675.4819" cy="221.2212" r="4.116"/>
	<circle cx="706.7319" cy="279.7212" r="4.116"/>
	<circle cx="717.9819" cy="274.2212" r="4.116"/>
	<circle cx="818.2103" cy="177.5287" r="5.3251"/>
	<circle cx="658.1744" cy="211.9473" r="4.5108"/>
	<circle cx="625.6744" cy="309.9473" r="4.5108"/>
	<circle cx="634.4244" cy="301.9473" r="4.5108"/>
	<circle cx="598.1744" cy="244.1973" r="4.5108"/>
	<circle cx="605.4244" cy="235.9473" r="4.5108"/>
	<circle cx="614.6744" cy="238.1973" r="4.5108"/>
	<circle cx="647.4244" cy="234.6973" r="3.0108"/>
	<circle cx="639.6744" cy="237.4473" r="3.0108"/>
	<circle cx="632.4244" cy="240.1973" r="3.0108"/>
	<circle cx="622.9244" cy="248.6973" r="3.0108"/>
	<circle cx="655.9244" cy="252.1973" r="3.0108"/>
	<circle cx="663.6744" cy="243.1973" r="3.0108"/>
	<circle cx="672.4244" cy="239.6973" r="3.0108"/>
	<circle cx="644.9244" cy="308.1973" r="4.5108"/>
	<circle cx="643.4244" cy="286.1973" r="4.5108"/>
	<circle cx="652.6744" cy="285.1973" r="4.5108"/>
	<circle cx="828.1603" cy="176.2122" r="4.465"/>
	<circle cx="670.3066" cy="215.3312" r="3.7005"/>
	<circle cx="706.9988" cy="222.4579" r="3.8965"/>
	<circle cx="718.348" cy="221.0905" r="4.0012"/>
	<circle cx="745.529" cy="185.6868" r="3.5395"/>
	<circle cx="778.2455" cy="192.1444" r="3.6257"/>
	<circle cx="721.0392" cy="184.6174" r="3.5395"/>
	<circle cx="836.8251" cy="176.9668" r="3.7127"/>
	<circle cx="528.7689" cy="258.7756" r="7.9838"/>
	<circle cx="504.3441" cy="260.9414" r="8.1729"/>
	<circle cx="487.9914" cy="263.0116" r="8.0964"/>
	<circle cx="493.012" cy="247.1462" r="8.083"/>
	<circle cx="550.6096" cy="259.2322" r="8.5074"/>
	<circle cx="505.5174" cy="234.8519" r="8.1908"/>
	<circle cx="479.2309" cy="234.8263" r="8.1692"/>
	<circle cx="523.0806" cy="246.7484" r="5.3206"/>
	<circle cx="509.6801" cy="247.7201" r="5.3339"/>
	<circle cx="463.9103" cy="245.5748" r="6.3324"/>
	<circle cx="557.7407" cy="245.2544" r="6.6244"/>
	<circle cx="537.2169" cy="250.9069" r="3.5612"/>
	<circle cx="515.9785" cy="259.5127" r="3.5489"/>
	<circle cx="452.2866" cy="249.8115" r="4.2926"/>
	<circle cx="492.1029" cy="230.7897" r="3.611"/>
	<circle cx="533.4236" cy="244.4625" r="3.7893"/>
	<circle cx="487.0015" cy="274.8276" r="2.4178"/>
	<circle cx="548.0176" cy="247.5938" r="2.3845"/>
	<circle cx="473.4684" cy="243.8025" r="2.4975"/>
	<circle cx="475.8165" cy="264.377" r="2.4007"/>
	<circle cx="538.7476" cy="262.9371" r="2.828"/>
	<circle cx="560.9929" cy="263.8833" r="2.8406"/>
	<circle cx="477.3564" cy="258.8008" r="2.467"/>
	<circle cx="520.093" cy="265.1465" r="2.78"/>
	<circle cx="514.9738" cy="266.7148" r="2.5741"/>
	<circle cx="518.5276" cy="254.0319" r="2.4958"/>
	<circle cx="491.8403" cy="236.762" r="2.3671"/>
	<circle cx="540.1106" cy="256.3993" r="2.3671"/>
	<circle cx="497.2966" cy="270.1238" r="2.4145"/>
	<circle cx="516.5189" cy="241.2863" r="2.8606"/>
	<circle cx="481.2622" cy="254.9989" r="2.3671"/>
	<circle cx="468.9286" cy="238.4686" r="2.3671"/>
	<circle cx="550.9088" cy="220.1248" r="5.1677"/>
	<circle cx="528.9352" cy="217.6788" r="5.3704"/>
	<circle cx="540.4741" cy="221.0514" r="5.2619"/>
	<circle cx="580.4695" cy="218.3363" r="5.2351"/>
	<circle cx="520.9108" cy="213.8966" r="3.5006"/>
	<circle cx="540.6336" cy="209.0709" r="3.5427"/>
	<circle cx="559.4678" cy="221.8737" r="3.4534"/>
	<circle cx="533.2326" cy="209.7283" r="3.6156"/>
	<circle cx="573.1094" cy="219.8719" r="2.2836"/>
	<circle cx="548.7359" cy="227.2941" r="2.3237"/>
	<circle cx="566.4186" cy="222.3566" r="2.3496"/>
	<circle cx="588.0577" cy="219.9631" r="2.3297"/>
	<circle cx="514.6325" cy="214.5886" r="2.6068"/>
	<circle cx="536.2736" cy="214.7831" r="2.2836"/>
	<circle cx="543.6683" cy="228.6019" r="2.7457"/>
	<circle cx="526.1365" cy="210.5548" r="2.2836"/>
	<circle cx="545.2723" cy="205.0044" r="1.5389"/>
	<circle cx="543.9127" cy="214.421" r="1.8128"/>
	<circle cx="584.9288" cy="211.6008" r="1.9475"/>
	<circle cx="509.7819" cy="214.7118" r="1.5601"/>
	<circle cx="534.0015" cy="224.0016" r="1.6542"/>
	<circle cx="522.8473" cy="220.9174" r="1.5253"/>
	<circle cx="554.957" cy="225.4519" r="1.5231"/>
	<circle cx="545.5954" cy="208.0493" r="1.5231"/>
	<circle cx="504.5853" cy="214.5378" r="1.7079"/>
	<circle cx="1795.0734" cy="270.6781" r="13.0348"/>
	<circle cx="1819.8617" cy="538.8876" r="14.0604"/>
	<circle cx="1583.848" cy="711.2742" r="18.1017"/>
	<circle cx="1786.4498" cy="738.5656" r="16.9308"/>
	<circle cx="1824.4498" cy="742.8989" r="13.2642"/>
	<circle cx="1795.1165" cy="770.5656" r="11.9308"/>
	<circle cx="1720.1165" cy="672.8989" r="7.9308"/>
	<circle cx="1744.1165" cy="688.2322" r="7.9308"/>
	<circle cx="1168.7638" cy="707.0895" r="13.5471"/>
	<circle cx="1831.0494" cy="500.0479" r="20.6111"/>
	<circle cx="1313.7721" cy="1169.6738" r="16.5258"/>
	<circle cx="1871.3588" cy="376.3989" r="16.7275"/>
	<circle cx="1062.6903" cy="771.8701" r="13.9795"/>
	<circle cx="1624.2543" cy="699.2463" r="17.8873"/>
	<circle cx="1752.3254" cy="366.3566" r="12.6567"/>
	<circle cx="1131.3451" cy="687.9373" r="17.5646"/>
	<circle cx="1165.6785" cy="673.604" r="17.5646"/>
	<circle cx="1266.8507" cy="334.5928" r="12.1678"/>
	<circle cx="1903.1708" cy="262.1016" r="21.8215"/>
	<circle cx="1236.2561" cy="607.6268" r="16.2122"/>
	<circle cx="1878.8827" cy="421.1724" r="12.9603"/>
	<circle cx="1098.9879" cy="677.499" r="12.5782"/>
	<circle cx="1237.0101" cy="803.4383" r="12.8792"/>
	<circle cx="1674.1514" cy="555.9807" r="15.8859"/>
	<circle cx="1397.8152" cy="1125.3716" r="11.9697"/>
	<circle cx="2034.2543" cy="431.4125" r="19.7761"/>
	<circle cx="1708.3829" cy="486.525" r="14.3468"/>
	<circle cx="1917.9298" cy="363.7637" r="12.0603"/>
	<circle cx="1917.9298" cy="328.0137" r="12.0603"/>
	<circle cx="1363.2052" cy="280.4377" r="16.5752"/>
	<circle cx="1332.3011" cy="922.975" r="16.5585"/>
	<circle cx="1718.5035" cy="614.2621" r="12.0409"/>
	<circle cx="1797.2173" cy="618.809" r="24.2691"/>
	<circle cx="1885.1824" cy="650.2034" r="15.1333"/>
	<circle cx="1858.9874" cy="691.4764" r="16.9152"/>
	<circle cx="1727.3627" cy="311.7402" r="13.8817"/>
	<circle cx="1743.0544" cy="656.6378" r="14.7969"/>
	<circle cx="1528.5536" cy="453.8417" r="16.5225"/>
	<circle cx="1360.9843" cy="1159.0768" r="14.0743"/>
	<circle cx="1451.8862" cy="904.6368" r="20.9986"/>
	<circle cx="2150.1487" cy="488.6774" r="15.4217"/>
	<circle cx="1410.547" cy="1032.1641" r="25.8863"/>
	<circle cx="1194.2496" cy="617.1837" r="13.9565"/>
	<circle cx="1235.0659" cy="731.2187" r="19.1156"/>
	<circle cx="1891.136" cy="455.0439" r="17.2438"/>
	<circle cx="1241.0475" cy="446.3953" r="13.6533"/>
	<circle cx="1747.3116" cy="554.4821" r="19.0496"/>
	<circle cx="1096.9751" cy="802.9411" r="12.9425"/>
	<circle cx="1101.3085" cy="741.9411" r="12.9425"/>
	<circle cx="1037.6418" cy="721.9411" r="12.9425"/>
	<circle cx="1036.3085" cy="698.2744" r="9.9425"/>
	<circle cx="1038.6418" cy="791.2744" r="12.9425"/>
	<circle cx="2008.309" cy="753.5856" r="12.5931"/>
	<circle cx="2017.9757" cy="729.5856" r="10.2597"/>
	<circle cx="1411.8027" cy="387.0242" r="13.0587"/>
	<circle cx="1373.7599" cy="785.5356" r="17.5702"/>
	<circle cx="2116.5042" cy="362.8804" r="15.5105"/>
	<circle cx="1473.8772" cy="1050.1514" r="13.4562"/>
	<circle cx="1461.2106" cy="1020.1513" r="13.4562"/>
	<circle cx="2034.1211" cy="752.9185" r="10.921"/>
	<circle cx="1624.4238" cy="526.354" r="13.4507"/>
	<circle cx="1919.4974" cy="641.7654" r="12.6737"/>
	<circle cx="1813.9642" cy="449.0382" r="14.3024"/>
	<circle cx="1841.2567" cy="465.847" r="15.0805"/>
	<circle cx="1470.2379" cy="534.2574" r="14.5989"/>
	<circle cx="2252.8484" cy="292.9528" r="13.2492"/>
	<circle cx="1396.6605" cy="1157.6703" r="19.411"/>
	<circle cx="1361.4926" cy="445.5559" r="13.8962"/>
	<circle cx="1529.0062" cy="354.0007" r="14.0733"/>
	<circle cx="1989.3032" cy="769.0544" r="11.9121"/>
	<circle cx="1130.3317" cy="607.3655" r="13.0037"/>
	<circle cx="1627.6656" cy="403.9894" r="13.2006"/>
	<circle cx="1717.4055" cy="449.1132" r="20.0704"/>
	<circle cx="1324.2219" cy="650.434" r="15.2026"/>
	<circle cx="1767.1013" cy="468.7175" r="18.2532"/>
	<circle cx="1515.7325" cy="681.566" r="14.9815"/>
	<circle cx="1483.0658" cy="668.566" r="14.9815"/>
	<circle cx="1927.9708" cy="498.9733" r="16.8301"/>
	<circle cx="1971.6086" cy="679.76" r="12.0491"/>
	<circle cx="1632.5028" cy="445.6097" r="21.0287"/>
	<circle cx="1338.756" cy="950.7043" r="11.9121"/>
	<circle cx="1313.756" cy="955.7043" r="11.9121"/>
	<circle cx="1320.6813" cy="726.6885" r="17.2475"/>
	<circle cx="1516.5291" cy="428.0747" r="11.9121"/>
	<circle cx="1125.1321" cy="721.5221" r="13.0364"/>
	<circle cx="1507.8077" cy="874.5687" r="12.8272"/>
	<circle cx="1141.9199" cy="638.2" r="13.5745"/>
	<circle cx="1195.1144" cy="725.2823" r="12.6335"/>
	<circle cx="1946.557" cy="284.7267" r="12.4104"/>
	<circle cx="1264.9027" cy="455.5889" r="11.9121"/>
	<circle cx="1919.4135" cy="444.5553" r="12.9162"/>
	<circle cx="2026.4137" cy="355.4041" r="14.5511"/>
	<circle cx="1539.0537" cy="866.6124" r="14.8015"/>
	<circle cx="1922.5415" cy="609.2025" r="14.2455"/>
	<circle cx="1396.0581" cy="720.5753" r="12.9666"/>
	<circle cx="1758.5068" cy="622.695" r="14.636"/>
	<circle cx="2098.7668" cy="391.3215" r="18.0083"/>
	<circle cx="1917.3787" cy="539.9648" r="13.1752"/>
	<circle cx="1269.0015" cy="871.1295" r="19.1723"/>
	<circle cx="2203.0679" cy="302.8054" r="15.0347"/>
	<circle cx="1534.598" cy="563.1563" r="16.2268"/>
	<circle cx="1636.8547" cy="619.8889" r="19.921"/>
	<circle cx="2010.595" cy="614.9358" r="14.6681"/>
	<circle cx="1393.3784" cy="918.8818" r="13.4563"/>
	<circle cx="1364.3784" cy="913.5485" r="13.4563"/>
	<circle cx="1974.3749" cy="650.7502" r="12.0871"/>
	<circle cx="2049.2942" cy="529.0522" r="19.2803"/>
	<circle cx="1120.0917" cy="765.6407" r="12.1123"/>
	<circle cx="2032.2898" cy="665.8185" r="13.0705"/>
	<circle cx="1340.4825" cy="494.2274" r="12.9285"/>
	<circle cx="1353.0298" cy="979.1744" r="12.923"/>
	<circle cx="1898.6816" cy="574.4523" r="16.8995"/>
	<circle cx="1190.9578" cy="472.4728" r="14.7899"/>
	<circle cx="1229.7104" cy="665.8238" r="18.605"/>
	<circle cx="1250.2623" cy="760.7554" r="14.101"/>
	<circle cx="1300.6184" cy="1006.5455" r="13.0266"/>
	<circle cx="1479.9955" cy="338.4301" r="16.6239"/>
	<circle cx="1402.813" cy="988.7539" r="13.9641"/>
	<circle cx="1747.9027" cy="296.1379" r="11.9121"/>
	<circle cx="1287.7936" cy="426.1279" r="14.718"/>
	<circle cx="1879.1782" cy="553.2455" r="11.9121"/>
	<circle cx="1479.3264" cy="636.5098" r="13.6697"/>
	<circle cx="2082.4683" cy="288.8444" r="13.9989"/>
	<circle cx="1603.6687" cy="567.1842" r="15.0643"/>
	<circle cx="1328.687" cy="268.9087" r="13.2037"/>
	<circle cx="1103.2325" cy="653.3792" r="11.9121"/>
	<circle cx="1775.5541" cy="388.9253" r="16.6713"/>
	<circle cx="1624.6659" cy="485.0518" r="12.9783"/>
	<circle cx="1329.8953" cy="325.6401" r="13.2144"/>
	<circle cx="1868.7123" cy="605.3595" r="13.2925"/>
	<circle cx="2111.7803" cy="444.4985" r="16.0162"/>
	<circle cx="1293.601" cy="1117.2926" r="19.2523"/>
	<circle cx="1526.954" cy="743.7944" r="17.7085"/>
	<circle cx="1397.0211" cy="626.4339" r="12.9274"/>
	<circle cx="1430.9255" cy="944.6953" r="13.5771"/>
	<circle cx="1763.8619" cy="258.3838" r="20.5108"/>
	<circle cx="1390.5973" cy="400.2102" r="11.9121"/>
	<circle cx="1362.9845" cy="1040.4071" r="13.0899"/>
	<circle cx="1350.9845" cy="1012.4071" r="13.0899"/>
	<circle cx="1173.9822" cy="779.5035" r="12.7689"/>
	<circle cx="1573.4897" cy="298.7686" r="18.6873"/>
	<circle cx="1288.9298" cy="668.2724" r="13.5158"/>
	<circle cx="1806.7166" cy="799.3094" r="14.678"/>
	<circle cx="1297.1097" cy="785.3361" r="18.0209"/>
	<circle cx="1105.8315" cy="602.8325" r="11.9121"/>
	<circle cx="1871.3708" cy="525.89" r="16.0428"/>
	<circle cx="1482.625" cy="582.322" r="16.9426"/>
	<circle cx="1147.4874" cy="744.1953" r="13.3532"/>
	<circle cx="1947.2162" cy="635.0081" r="11.9121"/>
	<circle cx="2128.3811" cy="640.1746" r="14.6522"/>
	<circle cx="2112.3811" cy="603.8412" r="14.6522"/>
	<circle cx="1977.1313" cy="525.9994" r="13.2141"/>
	<circle cx="1906.0604" cy="517.5757" r="11.9121"/>
	<circle cx="1213.2089" cy="589.1053" r="13.355"/>
	<circle cx="1228.2089" cy="567.4386" r="7.6883"/>
	<circle cx="1197.5422" cy="573.1052" r="7.6883"/>
	<circle cx="1161.8756" cy="599.7719" r="10.0216"/>
	<circle cx="1186.5422" cy="591.4386" r="10.0216"/>
	<circle cx="1126.2089" cy="584.4386" r="8.355"/>
	<circle cx="1114.2089" cy="542.772" r="8.355"/>
	<circle cx="1151.2089" cy="506.772" r="8.355"/>
	<circle cx="1166.5422" cy="460.772" r="8.355"/>
	<circle cx="1176.2089" cy="446.772" r="7.0216"/>
	<circle cx="1145.7089" cy="453.272" r="4.7716"/>
	<circle cx="2120.9028" cy="281.1587" r="17.0603"/>
	<circle cx="1475.8868" cy="452.769" r="13.4277"/>
	<circle cx="1588.6951" cy="460.9169" r="14.4617"/>
	<circle cx="1561.0284" cy="444.5835" r="14.4617"/>
	<circle cx="1280.077" cy="644.4353" r="11.9121"/>
	<circle cx="1566.4457" cy="735.7279" r="11.9121"/>
	<circle cx="1107.4172" cy="515.8673" r="12.1148"/>
	<circle cx="1165.5432" cy="577.1075" r="12.6692"/>
	<circle cx="1838.7958" cy="613.9207" r="15.0636"/>
	<circle cx="1198.7343" cy="701.005" r="11.9121"/>
	<circle cx="1646.5885" cy="559.5883" r="11.9121"/>
	<circle cx="1822.319" cy="399.459" r="12.4961"/>
	<circle cx="1413.9158" cy="898.269" r="12.6455"/>
	<circle cx="2043.498" cy="262.8032" r="13.6051"/>
	<circle cx="1372.0677" cy="666.501" r="12.9505"/>
	<circle cx="1762.7043" cy="526.4128" r="12.427"/>
	<circle cx="1409.6803" cy="677.2853" r="14.7503"/>
	<circle cx="1480.1517" cy="484.6609" r="17.0293"/>
	<circle cx="1976.1027" cy="500.1761" r="12.6296"/>
	<circle cx="2146.0442" cy="301.3085" r="12.2242"/>
	<circle cx="2036.5052" cy="586.4781" r="20.8136"/>
	<circle cx="2026.9609" cy="482.0729" r="14.5661"/>
	<circle cx="1812.3768" cy="252.7078" r="11.9121"/>
	<circle cx="1965.7927" cy="703.0047" r="11.9121"/>
	<circle cx="1286.5178" cy="754.5554" r="14.5313"/>
	<circle cx="1373.1571" cy="312.7158" r="15.6039"/>
	<circle cx="1641.3752" cy="504.6681" r="12.7899"/>
	<circle cx="1523.816" cy="707.2161" r="11.9121"/>
	<circle cx="1992.8895" cy="390.3461" r="14.6882"/>
	<circle cx="2167.7935" cy="316.5984" r="12.698"/>
	<circle cx="1839.5867" cy="712.7983" r="11.9121"/>
	<circle cx="2161.0376" cy="416.9279" r="16.9355"/>
	<circle cx="1565.1365" cy="605.1949" r="14.908"/>
	<circle cx="1509.9932" cy="476.1866" r="12.5229"/>
	<circle cx="1697.0985" cy="657.6525" r="12.3596"/>
	<circle cx="1984.1497" cy="436.4304" r="22.2677"/>
	<circle cx="1499.7029" cy="305.9441" r="20.7301"/>
	<circle cx="1399.2886" cy="427.5028" r="12.5816"/>
	<circle cx="1774.0056" cy="682.0718" r="19.6071"/>
	<circle cx="1424.0966" cy="969.2527" r="11.9121"/>
	<circle cx="2011.1504" cy="521.3994" r="12.2567"/>
	<circle cx="2061.3792" cy="677.7395" r="14.3218"/>
	<circle cx="2123.5315" cy="310.0117" r="11.9121"/>
	<circle cx="1199.8385" cy="446.2837" r="12.864"/>
	<circle cx="2001.1484" cy="550.9159" r="18.9084"/>
	<circle cx="1772.9271" cy="588.1452" r="14.8497"/>
	<circle cx="1310.9679" cy="1071.6586" r="13.9219"/>
	<circle cx="1674.6327" cy="494.1002" r="14.4172"/>
	<circle cx="1680.6327" cy="463.4336" r="13.0838"/>
	<circle cx="2092.0659" cy="626.7339" r="13.0219"/>
	<circle cx="1710.415" cy="417.9038" r="11.9121"/>
	<circle cx="1938.9965" cy="307.8442" r="11.9121"/>
	<circle cx="1485.6096" cy="429.3687" r="11.9121"/>
	<circle cx="1274.2675" cy="1061.4019" r="18.5174"/>
	<circle cx="1366.0226" cy="952.8721" r="15.4404"/>
	<circle cx="1959.2786" cy="391.1965" r="18.9335"/>
	<circle cx="1339.0212" cy="1084.3813" r="16.8817"/>
	<circle cx="1996.864" cy="261.8921" r="11.9475"/>
	<circle cx="2144.9512" cy="455.5253" r="18.1354"/>
	<circle cx="1418.5024" cy="922.3946" r="11.9121"/>
	<circle cx="1851.6075" cy="573.5631" r="17.9527"/>
	<circle cx="2071.2896" cy="478.4303" r="13.7627"/>
	<circle cx="1415.7709" cy="334.7175" r="19.8373"/>
	<circle cx="1660.9525" cy="401.0608" r="15.4444"/>
	<circle cx="1575.1971" cy="498.6234" r="11.9716"/>
	<circle cx="1837.4078" cy="313.3363" r="18.0421"/>
	<circle cx="1802.986" cy="570.4565" r="13.4229"/>
	<circle cx="1695.6917" cy="243.1824" r="21.789"/>
	<circle cx="1950.4974" cy="576.1135" r="12.2708"/>
	<circle cx="1485.3534" cy="838.9452" r="13.2597"/>
	<circle cx="1422.848" cy="1140.4845" r="11.9121"/>
	<circle cx="1353.2549" cy="399.7258" r="14.4861"/>
	<circle cx="1325.8938" cy="989.9108" r="15.5133"/>
	<circle cx="1806.769" cy="475.8169" r="13.4261"/>
	<circle cx="1783.8661" cy="223.7354" r="12.6932"/>
	<circle cx="1727.7788" cy="365.3103" r="11.9121"/>
	<circle cx="1658.2507" cy="284.1737" r="15.5229"/>
	<circle cx="1693.2507" cy="284.9237" r="15.5229"/>
	<circle cx="1305.2235" cy="281.1849" r="13.2773"/>
	<circle cx="1866.4849" cy="476.5684" r="12.3313"/>
	<circle cx="1892.6527" cy="622.2534" r="12.6168"/>
	<circle cx="1428.0425" cy="529.2749" r="19.2427"/>
	<circle cx="1547.5659" cy="409.3475" r="17.5316"/>
	<circle cx="1176.4845" cy="503.589" r="12.3217"/>
	<circle cx="1447.1897" cy="330.1476" r="11.9121"/>
	<circle cx="1167.076" cy="642.291" r="11.9121"/>
	<circle cx="1386.0468" cy="874.6954" r="13.2393"/>
	<circle cx="2065.3289" cy="453.4569" r="11.9121"/>
	<circle cx="1106.3706" cy="836.9415" r="18.62"/>
	<circle cx="1725.8103" cy="394.7678" r="13.5457"/>
	<circle cx="1512.8256" cy="526.9374" r="12.8648"/>
	<circle cx="1302.7828" cy="1031.5051" r="12.0267"/>
	<circle cx="1467.0732" cy="306.8529" r="11.9121"/>
	<circle cx="2020.1094" cy="695.7581" r="19.252"/>
	<circle cx="2061.9495" cy="415.9923" r="11.9226"/>
	<circle cx="1645.92" cy="308.6816" r="11.9121"/>
	<circle cx="1792.0505" cy="365.3856" r="12.0733"/>
	<circle cx="1313.2196" cy="413.4761" r="13.6818"/>
	<circle cx="2084.9731" cy="436.6643" r="11.9121"/>
	<circle cx="1222.2023" cy="759.4543" r="11.9121"/>
	<circle cx="1987.6801" cy="628.4048" r="11.9121"/>
	<circle cx="1432.5594" cy="755.6965" r="16.9103"/>
	<circle cx="1793.9684" cy="706.4634" r="11.9121"/>
	<circle cx="1463.3806" cy="951.2827" r="15.5601"/>
	<circle cx="1640.3879" cy="584.8445" r="14.0941"/>
	<circle cx="1038.7637" cy="761.976" r="11.9121"/>
	<circle cx="1687.8921" cy="629.5698" r="16.2379"/>
	<circle cx="1732.993" cy="588.3985" r="15.1604"/>
	<circle cx="1861.8237" cy="338.2876" r="16.8678"/>
	<circle cx="1611.5474" cy="302.6237" r="14.2001"/>
	<circle cx="1950.9287" cy="333.7717" r="16.6292"/>
	<circle cx="2071.0696" cy="565.4249" r="18.548"/>
	<circle cx="2009.3762" cy="459.5021" r="11.9182"/>
	<circle cx="1318.9056" cy="866.6182" r="20.7865"/>
	<circle cx="1434.3641" cy="453.1422" r="13.0508"/>
	<circle cx="1399.6871" cy="813.5266" r="12.0424"/>
	<circle cx="1448.651" cy="1047.4697" r="11.9121"/>
	<circle cx="2044.1365" cy="375.0562" r="11.9121"/>
	<circle cx="1357.4407" cy="696.8165" r="17.2416"/>
	<circle cx="1446.6385" cy="720.2509" r="19.3603"/>
	<circle cx="1526.7355" cy="651.3206" r="17.2031"/>
	<circle cx="1363.7174" cy="1189.7009" r="13.4441"/>
	<circle cx="1672.089" cy="366.5798" r="13.4384"/>
	<circle cx="1272.1383" cy="812.3446" r="16.3371"/>
	<circle cx="1460.2626" cy="366.8242" r="17.9538"/>
	<circle cx="2120.5369" cy="492.754" r="13.8464"/>
	<circle cx="2100.0369" cy="475.129" r="10.5964"/>
	<circle cx="2050.7869" cy="496.629" r="10.5964"/>
	<circle cx="1483.0906" cy="875.6169" r="11.9121"/>
	<circle cx="1461.7572" cy="864.9503" r="7.9121"/>
	<circle cx="1514.7572" cy="819.2836" r="7.9121"/>
	<circle cx="1537.424" cy="818.6169" r="7.9121"/>
	<circle cx="1408.3809" cy="1103.2667" r="12.5304"/>
	<circle cx="1845.3049" cy="653.1848" r="20.1773"/>
	<circle cx="1898.2404" cy="483.3212" r="11.9121"/>
	<circle cx="1316.3556" cy="812.79" r="15.507"/>
	<circle cx="1291.689" cy="839.4567" r="15.507"/>
	<circle cx="1243.689" cy="846.79" r="15.507"/>
	<circle cx="1322.7494" cy="1142.6901" r="11.9121"/>
	<circle cx="1298.3965" cy="694.7487" r="14.6021"/>
	<circle cx="1271.3965" cy="731.4154" r="9.6021"/>
	<circle cx="1328.7297" cy="683.7487" r="9.6021"/>
	<circle cx="1259.0631" cy="659.7487" r="9.6021"/>
	<circle cx="1376.0631" cy="641.4154" r="9.6021"/>
	<circle cx="1149.4542" cy="776.7589" r="11.9121"/>
	<circle cx="1884.6262" cy="309.7499" r="19.661"/>
	<circle cx="1267.1875" cy="784.5326" r="11.9121"/>
	<circle cx="1234.613" cy="635.7031" r="11.9121"/>
	<circle cx="1290.7322" cy="483.7531" r="14.4921"/>
	<circle cx="1286.4043" cy="946.3969" r="13.13"/>
	<circle cx="2085.0894" cy="688.9666" r="11.9121"/>
	<circle cx="1274.9899" cy="971.037" r="13.4037"/>
	<circle cx="1606.2004" cy="611.3059" r="11.9121"/>
	<circle cx="1574.2004" cy="578.6393" r="11.9121"/>
	<circle cx="1626.4041" cy="351.5703" r="13.057"/>
	<circle cx="1521.665" cy="395.3448" r="11.9121"/>
	<circle cx="1521.0251" cy="841.4791" r="13.6604"/>
	<circle cx="1732.8597" cy="340.8486" r="13.0716"/>
	<circle cx="1233.5239" cy="413.4758" r="12.9635"/>
	<circle cx="1400.8711" cy="1068.7031" r="11.9121"/>
	<circle cx="1780.4731" cy="650.8826" r="11.9121"/>
	<circle cx="1757.7605" cy="501.0057" r="13.4566"/>
	<circle cx="1053.8726" cy="678.4178" r="12.9678"/>
	<circle cx="1434.0919" cy="999.2986" r="14.5427"/>
	<circle cx="1056.9965" cy="818.1809" r="13.2483"/>
	<circle cx="1065.63" cy="703.9438" r="15.1359"/>
	<circle cx="1429.8149" cy="867.3775" r="20.5788"/>
	<circle cx="1460.5848" cy="978.6123" r="11.9121"/>
	<circle cx="1585.082" cy="344.0272" r="19.0673"/>
	<circle cx="1857.525" cy="253.5081" r="12.1696"/>
	<circle cx="2010.2134" cy="285.5166" r="15.1877"/>
	<circle cx="1345.3231" cy="811.3868" r="13.4773"/>
	<circle cx="1606.4132" cy="374.366" r="16.8816"/>
	<circle cx="1322.6218" cy="1208.6882" r="16.9933"/>
	<circle cx="1591.6837" cy="432.5264" r="14.0857"/>
	<circle cx="1786.6525" cy="339.2823" r="14.5824"/>
	<circle cx="1827.1525" cy="279.0323" r="14.5824"/>
	<circle cx="1669.5627" cy="608.2049" r="11.9121"/>
	<circle cx="1648.7147" cy="340.3591" r="11.9121"/>
	<circle cx="1815.6785" cy="665.5136" r="11.9121"/>
	<circle cx="1756.225" cy="438.8707" r="13.5136"/>
	<circle cx="1948.9364" cy="431.7135" r="13.068"/>
	<circle cx="2029.6652" cy="316.1283" r="19.412"/>
	<circle cx="1833.6323" cy="371.4052" r="17.753"/>
	<circle cx="2026.7504" cy="780.6497" r="16.5908"/>
	<circle cx="1438.407" cy="804.6766" r="16.9249"/>
	<circle cx="1486.8168" cy="901.3595" r="13.7637"/>
	<circle cx="1060.0449" cy="744.3028" r="13.7144"/>
	<circle cx="1502.8201" cy="355.5575" r="11.9121"/>
	<circle cx="1166.3696" cy="827.4477" r="15.9278"/>
	<circle cx="1288.3024" cy="921.4268" r="11.9121"/>
	<circle cx="1804.0953" cy="518.2479" r="11.9121"/>
	<circle cx="1267.0027" cy="698.973" r="17.0745"/>
	<circle cx="1120.7968" cy="810.0324" r="11.9121"/>
	<circle cx="1290.3885" cy="893.6867" r="11.9121"/>
	<circle cx="1490.7181" cy="796.2902" r="22.4288"/>
	<circle cx="1317.4636" cy="465.2782" r="18.0024"/>
	<circle cx="2234.0735" cy="312.7142" r="14.0091"/>
	<circle cx="2011.6768" cy="409.1774" r="11.9121"/>
	<circle cx="1335.2582" cy="1117.2227" r="13.3082"/>
	<circle cx="1355.4017" cy="473.7787" r="12.3842"/>
	<circle cx="1950.8945" cy="600.2932" r="11.9121"/>
	<circle cx="1979.8945" cy="603.2932" r="13.9121"/>
	<circle cx="1477.7551" cy="925.3831" r="11.9121"/>
	<circle cx="1460.2123" cy="840.1889" r="11.9121"/>
	<circle cx="2271.7305" cy="317.0883" r="16.6632"/>
	<circle cx="2072.6143" cy="332.1503" r="16.8161"/>
	<circle cx="2139.6143" cy="333.1503" r="14.8161"/>
	<circle cx="2105.8643" cy="332.9003" r="13.0661"/>
	<circle cx="1139.0618" cy="832.8649" r="11.9121"/>
	<circle cx="1898.1406" cy="350.2335" r="11.9121"/>
	<circle cx="1988.3079" cy="472.0043" r="12.5804"/>
	<circle cx="1436.7058" cy="417.9893" r="22.1801"/>
	<circle cx="1895.7682" cy="675.091" r="11.9121"/>
	<circle cx="2000.8391" cy="345.7913" r="12.7705"/>
	<circle cx="1497.4575" cy="394.6614" r="11.9881"/>
	<circle cx="1831.97" cy="421.8782" r="11.9121"/>
	<circle cx="1389.6333" cy="543.7499" r="12.4601"/>
	<circle cx="1554.6735" cy="349.9469" r="11.9121"/>
	<circle cx="1602.5541" cy="506.5583" r="12.1426"/>
	<circle cx="1340.3773" cy="894.9632" r="12.5943"/>
	<circle cx="1367.9862" cy="834.7809" r="19.0941"/>
	<circle cx="1730.4591" cy="504.9496" r="12.1218"/>
	<circle cx="1385.12" cy="687.6621" r="11.9121"/>
	<circle cx="1499.7523" cy="559.1002" r="11.9121"/>
	<circle cx="1361.9724" cy="881.9771" r="11.9121"/>
	<circle cx="1338.4747" cy="1045.3442" r="11.9121"/>
	<circle cx="2058.0073" cy="297.3907" r="11.9121"/>
	<circle cx="1202.3165" cy="795.0482" r="19.5494"/>
	<circle cx="1929.5352" cy="670.9482" r="15.2395"/>
	<circle cx="1398.2991" cy="843.623" r="12.4821"/>
	<circle cx="1377.5265" cy="983.2607" r="11.9121"/>
	<circle cx="1315.2749" cy="755.3426" r="11.9121"/>
	<circle cx="1602.618" cy="405.7974" r="11.9121"/>
	<circle cx="1690.6787" cy="532.6418" r="12.7123"/>
	<circle cx="1278.3663" cy="301.4523" r="20.369"/>
	<circle cx="2069.1184" cy="647.4169" r="12.4435"/>
	<circle cx="2072.7852" cy="605.0836" r="12.4435"/>
	<circle cx="1350.8036" cy="322.3873" r="7.9454"/>
	<circle cx="1927.7139" cy="559.1244" r="8.594"/>
	<circle cx="1917.1359" cy="288.3893" r="7.9454"/>
	<circle cx="1806.1509" cy="221.0383" r="8.3019"/>
	<circle cx="1687.407" cy="591.8369" r="10.4452"/>
	<circle cx="1541.6685" cy="835.1023" r="7.9454"/>
	<circle cx="1813.3497" cy="715.7519" r="9.5801"/>
	<circle cx="1850.2765" cy="537.3119" r="7.9454"/>
	<circle cx="1390.1067" cy="748.9902" r="16.065"/>
	<circle cx="1082.3497" cy="787.527" r="8.3059"/>
	<circle cx="2173.0935" cy="572.1462" r="8.3841"/>
	<circle cx="2188.9019" cy="278.6724" r="12.9489"/>
	<circle cx="1967.6951" cy="312.4248" r="10.5148"/>
	<circle cx="1436.1108" cy="1103.1934" r="8.9419"/>
	<circle cx="1873.4601" cy="400.9822" r="7.9454"/>
	<circle cx="1417.8496" cy="647.466" r="14.1147"/>
	<circle cx="1697.7122" cy="607.069" r="7.9454"/>
	<circle cx="1532.1023" cy="309.2484" r="11.8374"/>
	<circle cx="1533.8523" cy="284.4984" r="11.8374"/>
	<circle cx="1984.9618" cy="293.2463" r="11.2206"/>
	<circle cx="1568.7889" cy="818.12" r="12.4394"/>
	<circle cx="1668.2842" cy="327.8905" r="11.292"/>
	<circle cx="1281.1931" cy="348.6937" r="7.9454"/>
	<circle cx="2096.4993" cy="666.5578" r="9.7296"/>
	<circle cx="1458.5607" cy="630.51" r="7.9454"/>
	<circle cx="1551.0349" cy="587.2109" r="7.9454"/>
	<circle cx="1370.5424" cy="414.0198" r="7.9454"/>
	<circle cx="1383.6539" cy="444.0546" r="8.3159"/>
	<circle cx="1332.028" cy="831.2997" r="8.7464"/>
	<circle cx="1356.5563" cy="766.0849" r="8.0085"/>
	<circle cx="1471.746" cy="557.3646" r="8.5574"/>
	<circle cx="1521.1204" cy="600.2234" r="13.6778"/>
	<circle cx="1481.4755" cy="767.3564" r="7.9454"/>
	<circle cx="1221.5829" cy="432.7983" r="9.751"/>
	<circle cx="1210.5829" cy="414.7983" r="8.001"/>
	<circle cx="1198.7079" cy="426.6733" r="4.126"/>
	<circle cx="1186.0829" cy="434.4233" r="4.126"/>
	<circle cx="1515.6501" cy="506.3198" r="7.9454"/>
	<circle cx="1302.7209" cy="630.3026" r="9.8058"/>
	<circle cx="1085.3011" cy="770.6815" r="8.5679"/>
	<circle cx="2162.4971" cy="288.7559" r="8.4703"/>
	<circle cx="2149.2471" cy="274.7559" r="8.4703"/>
	<circle cx="2091.7471" cy="265.0059" r="8.4703"/>
	<circle cx="2104.6196" cy="643.5569" r="7.9454"/>
	<circle cx="1234.8506" cy="695.4055" r="11.42"/>
	<circle cx="2114.3374" cy="513.6454" r="7.9454"/>
	<circle cx="1706.9343" cy="384.4934" r="7.9454"/>
	<circle cx="1269.3541" cy="931.0339" r="9.3324"/>
	<circle cx="1253.3541" cy="906.7006" r="14.9991"/>
	<circle cx="1435.1763" cy="830.2483" r="8.8501"/>
	<circle cx="2070.1858" cy="384.8413" r="11.2982"/>
	<circle cx="1348.6796" cy="790.2288" r="7.9454"/>
	<circle cx="1758.7739" cy="229.1816" r="9.1312"/>
	<circle cx="1092.4934" cy="627.1733" r="11.4036"/>
	<circle cx="1072.5023" cy="653.8024" r="8.9152"/>
	<circle cx="1502.0114" cy="639.1324" r="9.1664"/>
	<circle cx="1986.6268" cy="741.5248" r="10.2178"/>
	<circle cx="1990.6268" cy="716.1915" r="13.5512"/>
	<circle cx="1958.9601" cy="731.8582" r="12.2178"/>
	<circle cx="1194.0598" cy="836.0648" r="13.0722"/>
	<circle cx="1468.0016" cy="817.6413" r="8.7466"/>
	<circle cx="1693.0889" cy="428.7773" r="8.5433"/>
	<circle cx="1601.1377" cy="322.17" r="7.9454"/>
	<circle cx="1255.89" cy="625.6263" r="10.4238"/>
	<circle cx="2074.8328" cy="519.6174" r="7.9454"/>
	<circle cx="1315.6241" cy="1093.1685" r="8.0863"/>
	<circle cx="1378.795" cy="1087.5914" r="14.3321"/>
	<circle cx="2084.1216" cy="505.9487" r="8.5808"/>
	<circle cx="1458.4714" cy="648.7524" r="9.364"/>
	<circle cx="1675.2062" cy="428.2528" r="9.3471"/>
	<circle cx="1593.9557" cy="637.5542" r="8.6623"/>
	<circle cx="1660.2889" cy="649.5542" r="15.9957"/>
	<circle cx="1583.099" cy="382.9003" r="7.9454"/>
	<circle cx="1826.6676" cy="237.9044" r="8.6637"/>
	<circle cx="1730.6146" cy="484.8829" r="7.9454"/>
	<circle cx="1204.2968" cy="652.823" r="9.5507"/>
	<circle cx="2026.9656" cy="559.3474" r="7.9454"/>
	<circle cx="1905.1002" cy="386.7076" r="14.227"/>
	<circle cx="1634.8513" cy="325.293" r="8.0492"/>
	<circle cx="1613.3513" cy="275.543" r="8.0492"/>
	<circle cx="1598.1013" cy="257.793" r="8.0492"/>
	<circle cx="1802.7551" cy="319.0659" r="8.018"/>
	<circle cx="1370.6924" cy="376.6571" r="14.4316"/>
	<circle cx="1323.7458" cy="506.7013" r="7.9454"/>
	<circle cx="1661.0787" cy="517.1165" r="9.8023"/>
	<circle cx="1941.4724" cy="261.8907" r="10.9848"/>
	<circle cx="1711.0739" cy="595.708" r="7.9454"/>
	<circle cx="2011.5548" cy="669.2435" r="7.9454"/>
	<circle cx="1655.2699" cy="463.5306" r="7.9454"/>
	<circle cx="1301.3354" cy="1052.0271" r="7.9454"/>
	<circle cx="1603.0295" cy="526.6407" r="7.9454"/>
	<circle cx="2059.8357" cy="793.4086" r="9.5028"/>
	<circle cx="1171.3278" cy="483.9426" r="7.9454"/>
	<circle cx="1590.453" cy="746.0981" r="8.0566"/>
	<circle cx="1742.3893" cy="527.9397" r="7.9454"/>
	<circle cx="1439.5138" cy="1128.1934" r="8.7959"/>
	<circle cx="1285.8513" cy="624.7778" r="7.9454"/>
	<circle cx="2041.7435" cy="461.0873" r="10.8292"/>
	<circle cx="2014.204" cy="866.5327" r="10.0862"/>
	<circle cx="2005.954" cy="850.5327" r="6.3362"/>
	<circle cx="1986.704" cy="827.2827" r="6.3362"/>
	<circle cx="2039.454" cy="805.5327" r="6.3362"/>
	<circle cx="2051.4541" cy="772.0327" r="6.3362"/>
	<circle cx="1985.204" cy="789.7827" r="4.7074"/>
	<circle cx="1983.704" cy="814.2827" r="2.9574"/>
	<circle cx="1995.954" cy="843.5327" r="2.9574"/>
	<circle cx="2062.2874" cy="726.616" r="2.9574"/>
	<circle cx="2069.0374" cy="723.366" r="2.9574"/>
	<circle cx="2151.9124" cy="673.0327" r="2.9574"/>
	<circle cx="2148.0374" cy="682.1994" r="2.9574"/>
	<circle cx="2154.2041" cy="680.9494" r="2.4574"/>
	<circle cx="2148.2041" cy="688.6994" r="2.9574"/>
	<circle cx="2151.5374" cy="695.6994" r="2.1241"/>
	<circle cx="2153.8499" cy="686.4494" r="2.1241"/>
	<circle cx="2153.2249" cy="691.1994" r="2.1241"/>
	<circle cx="2066.3706" cy="711.6994" r="2.9574"/>
	<circle cx="2066.2041" cy="699.366" r="6.6241"/>
	<circle cx="2048.5374" cy="696.6994" r="6.6241"/>
	<circle cx="2066.2874" cy="731.2827" r="2.9574"/>
	<circle cx="2014.954" cy="882.5327" r="2.9574"/>
	<circle cx="2025.204" cy="886.2827" r="2.9574"/>
	<circle cx="2030.204" cy="895.5327" r="2.9574"/>
	<circle cx="1985.454" cy="801.0327" r="2.9574"/>
	<circle cx="1951.2815" cy="662.9086" r="7.9454"/>
	<circle cx="1558.9778" cy="846.6015" r="8.2352"/>
	<circle cx="1227.0464" cy="338.7057" r="17.6752"/>
	<circle cx="1419.2468" cy="702.9383" r="8.192"/>
	<circle cx="1380.4093" cy="1002.9139" r="7.9514"/>
	<circle cx="1138.167" cy="549.5762" r="9.4729"/>
	<circle cx="1368.3923" cy="1138.3407" r="7.9454"/>
	<circle cx="1858.1301" cy="297.6538" r="7.9454"/>
	<circle cx="1481.4601" cy="1002.185" r="8.5223"/>
	<circle cx="1426.7935" cy="1075.1851" r="8.5223"/>
	<circle cx="1451.7935" cy="1074.1851" r="8.5223"/>
	<circle cx="1540.9855" cy="765.4332" r="8.0814"/>
	<circle cx="1562.3188" cy="759.7665" r="8.0814"/>
	<circle cx="1551.6521" cy="718.4332" r="8.0814"/>
	<circle cx="1596.6521" cy="687.7665" r="6.0814"/>
	<circle cx="1612.3188" cy="676.7665" r="6.0814"/>
	<circle cx="1578.6521" cy="686.7665" r="6.0814"/>
	<circle cx="1614.3188" cy="641.7665" r="6.0814"/>
	<circle cx="1502.9855" cy="720.0999" r="8.0814"/>
	<circle cx="1490.9855" cy="698.7665" r="8.0814"/>
	<circle cx="1526.9855" cy="776.0999" r="8.0814"/>
	<circle cx="2036.3645" cy="634.8401" r="14.7432"/>
	<circle cx="1553.5862" cy="328.7183" r="9.3443"/>
	<circle cx="1440.5068" cy="621.9848" r="12.0201"/>
	<circle cx="1957.603" cy="450.8563" r="7.9454"/>
	<circle cx="1930.853" cy="398.6063" r="7.9454"/>
	<circle cx="1948.603" cy="363.1063" r="7.9454"/>
	<circle cx="1541.3322" cy="697.0585" r="8.3361"/>
	<circle cx="1552.3322" cy="661.0585" r="8.3361"/>
	<circle cx="1337.4084" cy="767.8517" r="11.2206"/>
	<circle cx="1056.08" cy="657.6214" r="7.9454"/>
	<circle cx="1495.953" cy="608.4678" r="12.4043"/>
	<circle cx="1932.3518" cy="712.0822" r="9.0419"/>
	<circle cx="1946.0186" cy="693.0822" r="9.0419"/>
	<circle cx="1919.8518" cy="695.0822" r="9.0419"/>
	<circle cx="1833.0186" cy="835.4155" r="8.0419"/>
	<circle cx="1548.11" cy="375.4508" r="14.4228"/>
	<circle cx="1920.1754" cy="421.4512" r="10.2005"/>
	<circle cx="2034.1754" cy="397.4512" r="10.2005"/>
	<circle cx="1977.9254" cy="363.2012" r="10.2005"/>
	<circle cx="1730.8422" cy="251.9518" r="13.1295"/>
	<circle cx="1172.5967" cy="620.4772" r="7.9454"/>
	<circle cx="1462.4841" cy="782.794" r="8.8651"/>
	<circle cx="1462.8175" cy="754.794" r="8.8651"/>
	<circle cx="1411.1509" cy="791.4606" r="8.8651"/>
	<circle cx="1791.8964" cy="446.2147" r="7.9454"/>
	<circle cx="1763.5414" cy="410.412" r="7.9454"/>
	<circle cx="1365.2211" cy="506.8248" r="9.7498"/>
	<circle cx="1267.2188" cy="416.6249" r="7.9454"/>
	<circle cx="1101.5911" cy="773.3889" r="7.9454"/>
	<circle cx="2093.6992" cy="583.7823" r="7.9454"/>
	<circle cx="2101.8242" cy="563.1572" r="7.9454"/>
	<circle cx="2164.1992" cy="554.9072" r="6.5704"/>
	<circle cx="2150.9492" cy="543.5322" r="6.5704"/>
	<circle cx="2128.8242" cy="522.2822" r="6.5704"/>
	<circle cx="2137.8242" cy="509.4072" r="7.3204"/>
	<circle cx="2144.3242" cy="526.2822" r="8.4454"/>
	<circle cx="1610.7919" cy="723.9077" r="10.2093"/>
	<circle cx="2060.0676" cy="276.5826" r="7.9454"/>
	<circle cx="2070.3176" cy="259.8326" r="7.9454"/>
	<circle cx="2021.0676" cy="253.8326" r="7.9454"/>
	<circle cx="1111.1737" cy="705.8568" r="7.9454"/>
	<circle cx="1971.2184" cy="546.3159" r="7.9454"/>
	<circle cx="2111.9492" cy="675.1428" r="7.9454"/>
	<circle cx="1724.238" cy="643.8646" r="7.9454"/>
	<circle cx="1525.7574" cy="623.1041" r="9.668"/>
	<circle cx="1707.5101" cy="579.3503" r="8.7959"/>
	<circle cx="1347.7521" cy="625.0788" r="19.3886"/>
	<circle cx="1151.9633" cy="529.3494" r="11.7142"/>
	<circle cx="1477.922" cy="398.6246" r="7.9454"/>
	<circle cx="2175.1606" cy="475.7063" r="7.9454"/>
	<circle cx="2179.6606" cy="493.0813" r="7.9454"/>
	<circle cx="1791.0361" cy="537.926" r="11.705"/>
	<circle cx="2197.615" cy="338.8777" r="11.7078"/>
	<circle cx="2286.365" cy="287.8777" r="11.7078"/>
	<circle cx="2313.615" cy="293.1277" r="9.0452"/>
	<circle cx="1828.7671" cy="338.3807" r="8.451"/>
	<circle cx="1969.0751" cy="278.037" r="10.7728"/>
	<circle cx="1287.3458" cy="990.3077" r="7.9454"/>
	<circle cx="1651.3125" cy="371.64" r="7.9454"/>
	<circle cx="1689.3363" cy="346.3818" r="13.1215"/>
	<circle cx="1720.6714" cy="546.1858" r="8.8525"/>
	<circle cx="1774.5458" cy="295.2853" r="13.1141"/>
	<circle cx="2060.6055" cy="628.8903" r="7.9454"/>
	<circle cx="2180.2437" cy="300.1321" r="7.9454"/>
	<circle cx="1380.0563" cy="1116.3585" r="7.9454"/>
	<circle cx="1465.2018" cy="604.6885" r="11.4093"/>
	<circle cx="1410.4905" cy="735.7086" r="7.9454"/>
	<circle cx="1158.6211" cy="726.0383" r="7.9454"/>
	<circle cx="1821.7867" cy="580.6124" r="7.9454"/>
	<circle cx="1432.0287" cy="693.0873" r="7.9454"/>
	<circle cx="2261.7866" cy="371.3611" r="11.9272"/>
	<circle cx="2292.2866" cy="400.3611" r="9.9272"/>
	<circle cx="2283.7866" cy="381.6111" r="9.9272"/>
	<circle cx="1564.6956" cy="273.6296" r="7.9454"/>
	<circle cx="1398.2445" cy="357.4801" r="8.8909"/>
	<circle cx="2184.6213" cy="450.7605" r="12.9657"/>
	<circle cx="1557.5129" cy="684.733" r="12.0045"/>
	<circle cx="1355.5815" cy="1123.4417" r="7.9454"/>
	<circle cx="1836.9248" cy="255.0883" r="8.4912"/>
	<circle cx="2021.0687" cy="503.7996" r="7.9454"/>
	<circle cx="1947.1777" cy="481.7875" r="8.9431"/>
	<circle cx="1167.6356" cy="751.9222" r="8.2258"/>
	<circle cx="1354.7061" cy="1217.3961" r="12.3203"/>
	<circle cx="1801.6848" cy="391.0693" r="9.5472"/>
	<circle cx="2133.9958" cy="419.1028" r="10.1937"/>
	<circle cx="1414.276" cy="772.5347" r="7.9454"/>
	<circle cx="1819.4198" cy="698.1324" r="9.0557"/>
	<circle cx="1373.1125" cy="1208.9167" r="7.9454"/>
	<circle cx="1220.0094" cy="860.1425" r="8.4787"/>
	<circle cx="1741.1808" cy="472.5248" r="7.9454"/>
	<circle cx="1994.4813" cy="316.766" r="14.1526"/>
	<circle cx="1220.0411" cy="467.3251" r="10.1871"/>
	<circle cx="1244.3745" cy="475.6583" r="10.1871"/>
	<circle cx="1213.1245" cy="488.1583" r="7.1871"/>
	<circle cx="1254.3745" cy="497.6583" r="5.8537"/>
	<circle cx="1290.2078" cy="403.3251" r="5.8537"/>
	<circle cx="1257.3745" cy="431.8251" r="5.8537"/>
	<circle cx="1245.3745" cy="390.3251" r="5.8537"/>
	<circle cx="1270.0411" cy="373.1583" r="5.8537"/>
	<circle cx="1261.0411" cy="358.4917" r="5.8537"/>
	<circle cx="1278.7078" cy="363.3251" r="5.8537"/>
	<circle cx="1235.7078" cy="378.8251" r="5.8537"/>
	<circle cx="1266.3745" cy="508.3251" r="5.8537"/>
	<circle cx="1280.0411" cy="519.3251" r="5.8537"/>
	<circle cx="1329.2078" cy="529.4917" r="5.8537"/>
	<circle cx="1340.3745" cy="544.8251" r="5.8537"/>
	<circle cx="1344.0411" cy="517.1583" r="5.8537"/>
	<circle cx="1380.8745" cy="524.8251" r="5.8537"/>
	<circle cx="1452.0411" cy="551.6583" r="5.8537"/>
	<circle cx="1457.0411" cy="572.3251" r="5.8537"/>
	<circle cx="1451.8745" cy="588.4917" r="5.8537"/>
	<circle cx="1400.5411" cy="526.1583" r="5.8537"/>
	<circle cx="1275.2911" cy="511.4917" r="2.9371"/>
	<circle cx="1323.1245" cy="375.9917" r="2.9371"/>
	<circle cx="1344.1245" cy="356.6583" r="2.9371"/>
	<circle cx="1355.1245" cy="356.6583" r="2.9371"/>
	<circle cx="1354.2911" cy="365.8251" r="2.9371"/>
	<circle cx="1374.4578" cy="357.3251" r="2.9371"/>
	<circle cx="1392.7911" cy="375.1583" r="2.9371"/>
	<circle cx="1335.1245" cy="416.8251" r="2.9371"/>
	<circle cx="1360.4578" cy="425.1583" r="2.9371"/>
	<circle cx="1337.2911" cy="452.4917" r="2.9371"/>
	<circle cx="1382.4578" cy="472.4917" r="7.7704"/>
	<circle cx="1397.1245" cy="459.3251" r="7.7704"/>
	<circle cx="1412.4578" cy="446.8251" r="7.7704"/>
	<circle cx="1287.1245" cy="528.9917" r="2.9371"/>
	<circle cx="1291.2911" cy="520.2417" r="2.9371"/>
	<circle cx="1299.5411" cy="522.5751" r="2.2704"/>
	<circle cx="1304.3745" cy="525.4917" r="2.2704"/>
	<circle cx="1290.3745" cy="535.9917" r="3.0204"/>
	<circle cx="1287.8745" cy="543.4917" r="3.0204"/>
	<circle cx="1277.8745" cy="552.9083" r="3.0204"/>
	<circle cx="1268.6245" cy="550.4083" r="3.0204"/>
	<circle cx="1256.7078" cy="507.0751" r="2.9371"/>
	<circle cx="1263.9578" cy="499.0751" r="2.9371"/>
	<circle cx="1254.7078" cy="487.0751" r="2.9371"/>
	<circle cx="1244.9578" cy="490.4917" r="2.9371"/>
	<circle cx="1366.4799" cy="753.593" r="7.9454"/>
	<circle cx="1540.2137" cy="610.3727" r="7.9454"/>
	<circle cx="1430.3441" cy="369.574" r="12.0908"/>
	<circle cx="1378.7693" cy="428.0663" r="7.9454"/>
	<circle cx="1364.4596" cy="1070.5391" r="7.9454"/>
	<circle cx="2068.5928" cy="356.7008" r="8.0616"/>
	<circle cx="1303.5049" cy="982.9079" r="7.9454"/>
	<circle cx="1684.2258" cy="403.392" r="7.9454"/>
	<circle cx="2048.1953" cy="336.2544" r="7.9454"/>
	<circle cx="1342.204" cy="849.8041" r="7.9454"/>
	<circle cx="1129.0842" cy="516.873" r="9.5755"/>
	<circle cx="1158.7388" cy="804.1304" r="8.6064"/>
	<circle cx="1606.9956" cy="473.8462" r="7.9454"/>
	<circle cx="1401.1693" cy="1185.2689" r="8.5536"/>
	<circle cx="1663.5764" cy="581.7537" r="9.2994"/>
	<circle cx="1368.6796" cy="732.4818" r="10.984"/>
	<circle cx="1854.9681" cy="443.4541" r="11.1769"/>
	<circle cx="1344.0363" cy="432.4285" r="7.9454"/>
	<circle cx="1319.5363" cy="438.4285" r="7.9454"/>
	<circle cx="1291.5363" cy="454.0952" r="7.9454"/>
	<circle cx="1329.0363" cy="389.7618" r="7.9454"/>
	<circle cx="1346.2029" cy="375.5952" r="7.9454"/>
	<circle cx="1381.8695" cy="343.2618" r="7.9454"/>
	<circle cx="1391.8695" cy="280.5118" r="7.9454"/>
	<circle cx="1413.6195" cy="284.0118" r="7.9454"/>
	<circle cx="2002.5774" cy="582.2963" r="12.5046"/>
	<circle cx="1497.213" cy="457.2434" r="8.3628"/>
	<circle cx="1754.259" cy="337.6061" r="8.572"/>
	<circle cx="1697.509" cy="319.3561" r="8.572"/>
	<circle cx="1725.259" cy="283.1061" r="8.572"/>
	<circle cx="1734.009" cy="227.8561" r="8.572"/>
	<circle cx="1657.259" cy="257.1061" r="8.572"/>
	<circle cx="1398.7908" cy="939.7117" r="8.0653"/>
	<circle cx="1394.1241" cy="962.045" r="8.0653"/>
	<circle cx="1077.2882" cy="729.6547" r="8.9107"/>
	<circle cx="1859.2849" cy="624.3903" r="7.9454"/>
	<circle cx="2232.103" cy="288.6116" r="7.9454"/>
	<circle cx="2243.103" cy="273.1116" r="7.9454"/>
	<circle cx="2214.353" cy="280.3616" r="7.9454"/>
	<circle cx="2268.353" cy="277.1116" r="7.9454"/>
	<circle cx="1647.6453" cy="528.715" r="7.9454"/>
	<circle cx="1701.4596" cy="513.8268" r="8.9726"/>
	<circle cx="2296.3311" cy="316.4532" r="7.9454"/>
	<circle cx="2318.8311" cy="317.4532" r="7.9454"/>
	<circle cx="2304.5811" cy="332.2032" r="7.9454"/>
	<circle cx="2265.0811" cy="347.7032" r="7.9454"/>
	<circle cx="2364.3311" cy="298.7032" r="7.9454"/>
	<circle cx="2339.3311" cy="292.4532" r="7.9454"/>
	<circle cx="1144.7623" cy="709.6339" r="7.9454"/>
	<circle cx="1789.6265" cy="309.9849" r="7.9454"/>
	<circle cx="1996.1443" cy="656.9356" r="10.544"/>
	<circle cx="1191.1145" cy="664.327" r="7.9454"/>
	<circle cx="1672.6086" cy="305.7418" r="10.3871"/>
	<circle cx="1234.2178" cy="824.0749" r="7.9454"/>
	<circle cx="1343.9114" cy="662.606" r="7.9454"/>
	<circle cx="1418.6644" cy="819.8014" r="7.9454"/>
	<circle cx="1606.3638" cy="544.333" r="7.9454"/>
	<circle cx="1865.2729" cy="272.071" r="7.9454"/>
	<circle cx="1345.192" cy="306.0063" r="8.2522"/>
	<circle cx="1140.5825" cy="382.071" r="4.5717"/>
	<circle cx="1155.2507" cy="394.4521" r="4.5308"/>
	<circle cx="1153.2871" cy="422.8085" r="4.9944"/>
	<circle cx="1159.9332" cy="408.9476" r="4.7528"/>
	<circle cx="1166.5753" cy="419.5602" r="4.492"/>
	<circle cx="1136.0604" cy="367.5294" r="4.6178"/>
	<circle cx="1151.2268" cy="371.4014" r="4.6342"/>
	<circle cx="1145.7397" cy="414.9425" r="4.712"/>
	<circle cx="1173.8099" cy="414.1132" r="4.5639"/>
	<circle cx="1151.9269" cy="402.9869" r="4.5462"/>
	<circle cx="1149.4211" cy="386.1324" r="4.9201"/>
	<circle cx="1140.0691" cy="429.1161" r="3.2987"/>
	<circle cx="1131.9901" cy="382.5184" r="3.0171"/>
	<circle cx="1172.7058" cy="423.832" r="2.98"/>
	<circle cx="1163.5251" cy="399.5603" r="3.2747"/>
	<circle cx="1147.2128" cy="378.135" r="3.1388"/>
	<circle cx="1143.1476" cy="361.0338" r="3.545"/>
	<circle cx="1154.13" cy="414.0531" r="2.9765"/>
	<circle cx="1139.0094" cy="374.5278" r="2.9765"/>
	<circle cx="1167.7628" cy="406.3367" r="3.3301"/>
	<circle cx="1144.7655" cy="367.3795" r="2.9765"/>
	<circle cx="1162.6648" cy="426.0815" r="3.0917"/>
	<circle cx="1145.729" cy="425.3405" r="2.9765"/>
	<circle cx="1132.3998" cy="375.9003" r="3.3432"/>
	<circle cx="1143.9589" cy="372.4998" r="2.2068"/>
	<circle cx="1140.8468" cy="419.5969" r="2.0412"/>
	<circle cx="1167.0132" cy="411.8232" r="2.2074"/>
	<circle cx="1156.4347" cy="387.3076" r="2.1911"/>
	<circle cx="1141.7866" cy="408.2751" r="2.6577"/>
	<circle cx="1140.9219" cy="389.7765" r="2.0169"/>
	<circle cx="1133.9681" cy="431.3199" r="2.2665"/>
	<circle cx="1158.3511" cy="400.6498" r="2.0128"/>
	<circle cx="1136.9048" cy="388.2003" r="2.1503"/>
	<circle cx="1136.791" cy="419.0468" r="2.0517"/>
	<circle cx="1159.0905" cy="417.7737" r="2.6886"/>
	<circle cx="1148.6792" cy="396.1349" r="2.2527"/>
	<circle cx="1148.5868" cy="360.0338" r="1.9854"/>
	<circle cx="1161.7651" cy="394.6034" r="1.9854"/>
	<circle cx="1146.4186" cy="407.955" r="1.9854"/>
	<circle cx="1168.5327" cy="426.2064" r="1.8214"/>
	<circle cx="1158.2047" cy="426.8234" r="1.3541"/>
	<circle cx="1156.6534" cy="367.7605" r="1.7941"/>
	<circle cx="1149.3383" cy="410.0962" r="1.3242"/>
	<circle cx="1145.8723" cy="393.2236" r="1.5036"/>
	<circle cx="1130.7119" cy="370.7255" r="1.6129"/>
	<circle cx="1135.2208" cy="379.6187" r="1.3242"/>
	<circle cx="1152.4357" cy="409.0154" r="1.5037"/>
	<circle cx="1144.1775" cy="390.5275" r="1.3242"/>
	<circle cx="1149.3422" cy="392.3763" r="1.3242"/>
	<circle cx="1146.8741" cy="420.879" r="1.332"/>
	<circle cx="1160.231" cy="422.1123" r="1.5643"/>
	<circle cx="1152.1506" cy="354.7128" r="1.3931"/>
	<circle cx="1132.5558" cy="419.485" r="1.4386"/>
	<circle cx="1143.2358" cy="376.0155" r="1.3677"/>
	<circle cx="1135.559" cy="428.101" r="1.3242"/>
	<circle cx="1163.1992" cy="414.8241" r="1.3242"/>
	<circle cx="1116.5043" cy="390.6637" r="3.6925"/>
	<circle cx="1108.7362" cy="409.2026" r="3.8702"/>
	<circle cx="1120.0673" cy="410.8787" r="3.9947"/>
	<circle cx="1107.958" cy="400.5037" r="3.7495"/>
	<circle cx="1104.7498" cy="416.595" r="3.6724"/>
	<circle cx="1123.6528" cy="394.8212" r="3.6978"/>
	<circle cx="1116.9773" cy="399.6204" r="4.0676"/>
	<circle cx="1122.9453" cy="403.5835" r="2.6925"/>
	<circle cx="1111.1343" cy="415.281" r="2.6641"/>
	<circle cx="1114.3677" cy="405.7166" r="2.5636"/>
	<circle cx="1096.7194" cy="417.2505" r="2.531"/>
	<circle cx="1101.3063" cy="398.3407" r="2.4846"/>
	<circle cx="1100.2305" cy="403.1472" r="2.4407"/>
	<circle cx="1100.9888" cy="412.6169" r="1.8022"/>
	<circle cx="1115.7611" cy="414.4941" r="1.628"/>
	<circle cx="1114.2996" cy="411.1531" r="1.7795"/>
	<circle cx="1111.2574" cy="396.2574" r="1.628"/>
	<circle cx="1103.7937" cy="406.7939" r="1.628"/>
	<circle cx="1127.1844" cy="390.4982" r="1.6778"/>
	<circle cx="1118.8669" cy="405.0093" r="1.628"/>
	<circle cx="1103.7931" cy="403.9351" r="1.208"/>
	<circle cx="1123.562" cy="389.0513" r="1.0914"/>
	<circle cx="1097.6268" cy="413.5236" r="1.2336"/>
	<circle cx="1112.8948" cy="394.0336" r="1.1337"/>
	<circle cx="1128.387" cy="393.4437" r="1.2327"/>
	<circle cx="1099.9921" cy="418.7902" r="1.0858"/>
	<circle cx="1124.514" cy="399.9418" r="1.2728"/>
	<circle cx="1110.583" cy="393.1903" r="1.2835"/>
	<circle cx="1124.3655" cy="407.2469" r="1.2366"/>
	<circle cx="1121.3311" cy="389.4812" r="1.1806"/>
	<circle cx="1122.1239" cy="399.354" r="1.0858"/>
	<circle cx="1104.0465" cy="411.1733" r="1.2166"/>
	<circle cx="1111.7407" cy="391.0398" r="1.0858"/>
	<circle cx="1102.3519" cy="420.7048" r="1.0858"/>
	<circle cx="1537.0745" cy="1072.3882" r="9.2984"/>
	<circle cx="1534.4786" cy="1118.6936" r="9.2061"/>
	<circle cx="1543.2377" cy="1097.3142" r="9.2259"/>
	<circle cx="1532.13" cy="1137.8185" r="9.564"/>
	<circle cx="1556.366" cy="1071.6432" r="10.0074"/>
	<circle cx="1565.1298" cy="1046.2031" r="9.3455"/>
	<circle cx="1549.0223" cy="1113.8551" r="6.1213"/>
	<circle cx="1530.941" cy="1086.5354" r="6.1213"/>
	<circle cx="1556.2958" cy="1089.2506" r="6.1213"/>
	<circle cx="1519.6531" cy="1125.8815" r="6.3965"/>
	<circle cx="1569.6072" cy="1033.1575" r="4.4472"/>
	<circle cx="1519.8917" cy="1143.8567" r="4.0829"/>
	<circle cx="1544.1833" cy="1060.8994" r="4.2117"/>
	<circle cx="1547.2667" cy="1126.3982" r="4.4631"/>
	<circle cx="1552.0371" cy="1056.3386" r="4.8703"/>
	<circle cx="1527.5134" cy="1104.6997" r="4.4703"/>
	<circle cx="1564.58" cy="1060.1541" r="4.1161"/>
	<circle cx="1532.7465" cy="1150.1777" r="2.8106"/>
	<circle cx="1540.0723" cy="1085.4985" r="3.0065"/>
	<circle cx="1547.5261" cy="1133.5798" r="2.7233"/>
	<circle cx="1529.0303" cy="1097.3271" r="3.0567"/>
	<circle cx="1555.6038" cy="1101.3962" r="3.7965"/>
	<circle cx="1544.3392" cy="1141.4263" r="3.1671"/>
	<circle cx="1518.3184" cy="1135.1504" r="2.9681"/>
	<circle cx="1523.4354" cy="1076.7844" r="2.8902"/>
	<circle cx="1520.1676" cy="1116.0568" r="3.4417"/>
	<circle cx="1546.906" cy="1081.4358" r="3.6083"/>
	<circle cx="1526.542" cy="1150.9578" r="3.4428"/>
	<circle cx="2023.8827" cy="938.013" r="11.4171"/>
	<circle cx="2012.5641" cy="918.1677" r="11.4291"/>
	<circle cx="1979.2949" cy="876.5618" r="7.5722"/>
	<circle cx="2004.5001" cy="900.6132" r="7.6855"/>
	<circle cx="2035.6299" cy="955.7664" r="7.9354"/>
	<circle cx="1992.2202" cy="890.1877" r="7.1504"/>
	<circle cx="2040.953" cy="939.9721" r="5.2854"/>
	<circle cx="2035.5851" cy="928.5533" r="3.4382"/>
	<circle cx="2009.2031" cy="933.8609" r="3.8383"/>
	<circle cx="2025.1107" cy="952.4672" r="3.0891"/>
	<circle cx="2017.5056" cy="904.436" r="3.1646"/>
	<circle cx="1966.4144" cy="866.1255" r="3.7923"/>
	<circle cx="1999.3068" cy="910.0535" r="3.0891"/>
	<circle cx="2028.0577" cy="921.6519" r="3.1901"/>
	<circle cx="2102.3379" cy="902.5992" r="10.6707"/>
	<circle cx="2099.5679" cy="926.3049" r="9.9803"/>
	<circle cx="2123.6497" cy="908.2527" r="9.641"/>
	<circle cx="2133.0466" cy="889.4438" r="10.1505"/>
	<circle cx="2114.0171" cy="884.0808" r="9.6203"/>
	<circle cx="2122.4402" cy="934.3062" r="9.8849"/>
	<circle cx="2143.823" cy="859.7109" r="9.8559"/>
	<circle cx="2082.5459" cy="908.8384" r="9.9848"/>
	<circle cx="2127.9888" cy="872.2837" r="7.2515"/>
	<circle cx="2132.637" cy="919.125" r="4.4651"/>
	<circle cx="2090.562" cy="937.3616" r="4.28"/>
	<circle cx="2141.7351" cy="875.8185" r="5.3481"/>
	<circle cx="2111.1665" cy="917.266" r="4.7246"/>
	<circle cx="2138.9038" cy="903.051" r="4.6637"/>
	<circle cx="2108.0591" cy="939.9952" r="4.736"/>
	<circle cx="2097.9849" cy="887.9474" r="4.6141"/>
	<circle cx="2085.377" cy="927.8669" r="4.2962"/>
	<circle cx="2117.9177" cy="871.441" r="2.8547"/>
	<circle cx="2122.3472" cy="921.5668" r="2.8547"/>
	<circle cx="2120.999" cy="895.2888" r="3.0949"/>
	<circle cx="2113.897" cy="924.6856" r="2.9815"/>
	<circle cx="2130.8274" cy="861.6616" r="3.2854"/>
	<circle cx="2138.3181" cy="847.0209" r="3.2295"/>
	<circle cx="2139.1592" cy="910.8173" r="3.1068"/>
	<circle cx="2092.1838" cy="893.6644" r="2.8547"/>
	<circle cx="2147.4954" cy="899.3934" r="3.0057"/>
	<circle cx="2115.9395" cy="898.4192" r="2.8547"/>
	<circle cx="2145.5691" cy="893.8585" r="2.8547"/>
	<circle cx="2093.356" cy="981.1662" r="6.8427"/>
	<circle cx="2078.5032" cy="981.3759" r="6.06"/>
	<circle cx="2086.0427" cy="973.1351" r="4.0193"/>
	<circle cx="2112.4341" cy="987.4637" r="4.3377"/>
	<circle cx="2179.2979" cy="991.2886" r="4.414"/>
	<circle cx="2057.2815" cy="971.7643" r="4.4394"/>
	<circle cx="2063.2988" cy="978.2598" r="4.1072"/>
	<circle cx="2148.4248" cy="991.5148" r="4.0198"/>
	<circle cx="2120.5469" cy="989.9447" r="4.0526"/>
	<circle cx="2102.5322" cy="986.9802" r="4.0203"/>
	<circle cx="2048.8755" cy="970.3494" r="4.045"/>
	<circle cx="2101.9043" cy="975.9728" r="3.1357"/>
	<circle cx="2142.0752" cy="988.6754" r="2.9357"/>
	<circle cx="2209.6531" cy="989.4733" r="2.7693"/>
	<circle cx="2165.3196" cy="991.7233" r="1.7693"/>
	<circle cx="2170.3196" cy="992.2233" r="1.7693"/>
	<circle cx="2186.8196" cy="990.8066" r="1.7693"/>
	<circle cx="2192.4863" cy="990.9733" r="1.7693"/>
	<circle cx="2197.9863" cy="990.5566" r="1.7693"/>
	<circle cx="2203.4031" cy="988.7233" r="1.7693"/>
	<circle cx="2203.8196" cy="994.7233" r="1.7693"/>
	<circle cx="2215.2363" cy="988.0566" r="1.7693"/>
	<circle cx="2199.3196" cy="998.8066" r="1.7693"/>
	<circle cx="2194.7363" cy="1002.4733" r="1.7693"/>
	<circle cx="2191.3196" cy="1005.39" r="1.7693"/>
	<circle cx="2161.0696" cy="991.39" r="1.7693"/>
	<circle cx="2133.646" cy="987.9697" r="2.7563"/>
	<circle cx="2069.9956" cy="979.3701" r="2.6809"/>
	<circle cx="2155.3933" cy="992.064" r="2.9704"/>
	<circle cx="2168.0442" cy="927.1738" r="6.3213"/>
	<circle cx="2182.4421" cy="950.9307" r="4.5298"/>
	<circle cx="2164.7197" cy="948.1331" r="4.2614"/>
	<circle cx="2178.0115" cy="936.7888" r="4.5836"/>
	<circle cx="2164.144" cy="958.0001" r="4.7234"/>
	<circle cx="2193.0662" cy="904.407" r="4.2603"/>
	<circle cx="2160.988" cy="936.4542" r="4.935"/>
	<circle cx="2204.0969" cy="900.5707" r="3.206"/>
	<circle cx="2184.4385" cy="902.905" r="2.8675"/>
	<circle cx="2183.3118" cy="920.2067" r="4.2039"/>
	<circle cx="2180.0627" cy="943.9869" r="2.8104"/>
	<circle cx="2186.9512" cy="956.7848" r="2.8597"/>
	<circle cx="2169.4905" cy="900.0666" r="2.9905"/>
	<circle cx="2176.8789" cy="924.8638" r="2.8104"/>
	<circle cx="2179.9402" cy="901.4045" r="1.8745"/>
	<circle cx="2165.3887" cy="941.6508" r="1.8745"/>
	<circle cx="2165.5703" cy="903.6563" r="2.2191"/>
	<circle cx="2159.9304" cy="943.9626" r="2.0892"/>
	<circle cx="2176.2361" cy="899.7644" r="2.1765"/>
	<circle cx="2162.6316" cy="919.9998" r="2.2444"/>
	<circle cx="2176.6196" cy="929.5859" r="1.9188"/>
	<circle cx="2158.8037" cy="929.2188" r="1.9292"/>
	<circle cx="2164.5593" cy="911.6884" r="1.8793"/>
	<circle cx="2180.23" cy="957.3709" r="1.968"/>
	<circle cx="2200.5356" cy="904.2161" r="1.8903"/>
	<circle cx="2198.3721" cy="901.0642" r="1.9326"/>
	<circle cx="2164.6956" cy="915.5526" r="1.9873"/>
	<circle cx="2185.0581" cy="944.569" r="2.219"/>
	<circle cx="2205.8706" cy="835.9135" r="9.3093"/>
	<circle cx="2165.0288" cy="750.0206" r="7.2623"/>
	<circle cx="2162.4866" cy="764.3141" r="7.0259"/>
	<circle cx="2185.9526" cy="780.4456" r="4.8677"/>
	<circle cx="2192.7393" cy="814.6672" r="4.6833"/>
	<circle cx="2211.5144" cy="821.1175" r="4.3008"/>
	<circle cx="2166.1428" cy="776.5611" r="4.6162"/>
	<circle cx="2183.824" cy="805.0577" r="4.3054"/>
	<circle cx="2163.2834" cy="738.5588" r="4.3317"/>
	<circle cx="2204.3794" cy="849.5602" r="4.2635"/>
	<circle cx="2199.4363" cy="797.6989" r="4.2307"/>
	<circle cx="2192.8289" cy="831.6049" r="4.4257"/>
	<circle cx="2193.627" cy="791.898" r="3.6654"/>
	<circle cx="2155.4446" cy="757.291" r="2.8641"/>
	<circle cx="2174.6362" cy="777.1207" r="3.8326"/>
	<circle cx="2360.4209" cy="967.9492" r="12.7938"/>
	<circle cx="2338.7786" cy="954.0161" r="12.7614"/>
	<circle cx="2310.8857" cy="944.3088" r="12.9305"/>
	<circle cx="2337.1868" cy="979.3868" r="12.6592"/>
	<circle cx="2379.4763" cy="977.5659" r="8.4896"/>
	<circle cx="2279.4995" cy="936.8244" r="8.3664"/>
	<circle cx="2273.8911" cy="922.7564" r="6.3598"/>
	<circle cx="2262.1089" cy="921.14" r="5.5326"/>
	<circle cx="2324.2971" cy="965.4974" r="5.7192"/>
	<circle cx="2330.3064" cy="935.2128" r="7.1991"/>
	<circle cx="2358.3708" cy="949.7279" r="5.5424"/>
	<circle cx="2391.3235" cy="991.6978" r="5.8969"/>
	<circle cx="2354.8096" cy="985.3954" r="5.5326"/>
	<circle cx="2292.165" cy="943.792" r="4.2404"/>
	<circle cx="2341.1912" cy="935.5276" r="3.6902"/>
	<circle cx="2314.6436" cy="927.244" r="3.8774"/>
	<circle cx="2388.772" cy="967.3032" r="3.9"/>
	<circle cx="2368.7014" cy="952.9623" r="4.3286"/>
	<circle cx="2404.551" cy="1001.943" r="3.9221"/>
	<circle cx="2396.9202" cy="1000.0058" r="3.9506"/>
	<circle cx="2351.0945" cy="943.1086" r="3.6902"/>
	<circle cx="2376.1133" cy="962.726" r="3.745"/>
	<circle cx="2325.8362" cy="1211.5681" r="20.1736"/>
	<circle cx="2140.4685" cy="1177.116" r="18.4627"/>
	<circle cx="2339.4812" cy="1108.8427" r="19.1235"/>
	<circle cx="2225.9275" cy="1150.5996" r="18.124"/>
	<circle cx="2338.3501" cy="1167.3684" r="20.1037"/>
	<circle cx="2185.4011" cy="1107.1212" r="18.6903"/>
	<circle cx="2142.1375" cy="1133.7578" r="19.2166"/>
	<circle cx="2192.1243" cy="1171.53" r="18.9717"/>
	<circle cx="2283.3062" cy="1215.6088" r="21.2604"/>
	<circle cx="2272.9385" cy="1173.7371" r="18.3609"/>
	<circle cx="2245.0991" cy="1073.9324" r="19.176"/>
	<circle cx="2257.9534" cy="1130.2476" r="18.6317"/>
	<circle cx="2376.8074" cy="1175.9753" r="18.1495"/>
	<circle cx="2302.0156" cy="1119.1171" r="18.266"/>
	<circle cx="2229.7424" cy="1190.3167" r="18.9871"/>
	<circle cx="2288.6631" cy="1254.8459" r="18.3407"/>
	<circle cx="2127.0327" cy="1212.5023" r="18.4478"/>
	<circle cx="2223.2676" cy="1108.6045" r="19.0848"/>
	<circle cx="2282.2122" cy="1077.5505" r="18.113"/>
	<circle cx="2364.9031" cy="1136.1382" r="18.1768"/>
	<circle cx="2109.3191" cy="1152.4344" r="18.3905"/>
	<circle cx="2212.1941" cy="1062.936" r="12.5083"/>
	<circle cx="2275.4915" cy="1039.1741" r="12.5427"/>
	<circle cx="2300.7161" cy="1151.3925" r="12.9384"/>
	<circle cx="2102.1189" cy="1188.8937" r="13.3318"/>
	<circle cx="2181.4202" cy="1200.6799" r="12.0814"/>
	<circle cx="2371.8171" cy="1105.0586" r="12.1653"/>
	<circle cx="2360.3567" cy="1208.4568" r="12.7591"/>
	<circle cx="2172.7126" cy="1146.1632" r="12.9703"/>
	<circle cx="2338.5244" cy="1076.8662" r="12.7031"/>
	<circle cx="2335.1506" cy="1247.1224" r="12.8704"/>
	<circle cx="2303.7578" cy="1188.0537" r="12.0814"/>
	<circle cx="2100.2117" cy="1227.0852" r="12.0814"/>
	<circle cx="2245.4036" cy="1217.149" r="12.0814"/>
	<circle cx="2336.6516" cy="1135.8767" r="8.0583"/>
	<circle cx="2152.9209" cy="1203.5623" r="8.6784"/>
	<circle cx="2264.1973" cy="1103.6636" r="8.2709"/>
	<circle cx="2198.0127" cy="1083.2161" r="8.3375"/>
	<circle cx="2250.1738" cy="1037.0514" r="8.173"/>
	<circle cx="2201.6477" cy="1135.8528" r="10.2834"/>
	<circle cx="2319.6169" cy="1085.4421" r="8.0583"/>
	<circle cx="2391.1047" cy="1154.011" r="8.0583"/>
	<circle cx="2316.7024" cy="1257.0054" r="8.0583"/>
	<circle cx="2280.5247" cy="1103.915" r="8.0583"/>
	<circle cx="2348.2153" cy="1054.9292" r="9.5123"/>
	<circle cx="2257.5935" cy="1199.9618" r="8.8388"/>
	<circle cx="2251.5149" cy="1156.1493" r="8.0583"/>
	<circle cx="2359.4575" cy="1086.6219" r="10.031"/>
	<circle cx="2152.6997" cy="1217.6139" r="5.3749"/>
	<circle cx="2108.7107" cy="1119.8311" r="5.9685"/>
	<circle cx="2302.2695" cy="1093.9281" r="6.9243"/>
	<circle cx="2202.8508" cy="1199.6423" r="9.3743"/>
	<circle cx="2284.6736" cy="1139.4988" r="7.0322"/>
	<circle cx="2247.6753" cy="1107.0123" r="5.3749"/>
	<circle cx="2355.575" cy="1067.8699" r="5.3749"/>
	<circle cx="2119.5334" cy="1115.2612" r="5.7795"/>
	<circle cx="2161.7922" cy="1118.9785" r="5.3749"/>
	<circle cx="2091.1775" cy="1167.7861" r="5.3749"/>
	<circle cx="2306.3342" cy="1230.007" r="5.8984"/>
	<circle cx="2099.7969" cy="1129.1394" r="6.7757"/>
	<circle cx="2309.2056" cy="1269.8323" r="6.5756"/>
	<circle cx="2355.5471" cy="1231.2371" r="7.6858"/>
	<circle cx="2137.3057" cy="1108.996" r="6.0123"/>
	<circle cx="2312.9829" cy="1164.9904" r="5.3749"/>
	<circle cx="2320.9897" cy="1142.5353" r="8.9602"/>
	<circle cx="2249.2031" cy="1173.8728" r="5.3749"/>
	<circle cx="2161.9983" cy="1101.5143" r="5.3749"/>
	<circle cx="2296.6619" cy="1169.3464" r="5.4676"/>
	<circle cx="2195.2051" cy="1068.5205" r="5.3749"/>
	<circle cx="2316.2231" cy="1237.5197" r="6.5206"/>
	<circle cx="2349.3816" cy="1194.0211" r="5.3749"/>
	<circle cx="2265.5872" cy="1057.12" r="7.327"/>
	<circle cx="2156.2976" cy="1158.9592" r="5.6251"/>
	<circle cx="2163.8987" cy="1172.7271" r="5.3749"/>
	<circle cx="2345.3384" cy="1027.7007" r="6.023"/>
	<circle cx="2270.6174" cy="1239.0275" r="5.3749"/>
	<circle cx="2393.6965" cy="1137.5812" r="6.2002"/>
	<circle cx="2186.2869" cy="1075.507" r="5.6953"/>
	<circle cx="2295.261" cy="1302.5327" r="3.6295"/>
	<circle cx="2285.0259" cy="1306.8209" r="3.4895"/>
	<circle cx="2281.7424" cy="1317.6232" r="3.395"/>
	<circle cx="2291.7898" cy="1310.2915" r="3.4131"/>
	<circle cx="2283.074" cy="1299.757" r="3.4376"/>
	<circle cx="2278.6799" cy="1309.609" r="3.4421"/>
	<circle cx="2289.2229" cy="1302.9093" r="2.2478"/>
	<circle cx="2286.6304" cy="1313.6261" r="2.3649"/>
	<circle cx="2275.4702" cy="1320.3076" r="2.7214"/>
	<circle cx="2301.4075" cy="1299.9197" r="2.5022"/>
	<circle cx="2290.6301" cy="1315.9236" r="2.2478"/>
	<circle cx="2297.0498" cy="1308.1991" r="2.2478"/>
	<circle cx="2279.5186" cy="1304.423" r="1.7329"/>
	<circle cx="2282.822" cy="1312.3832" r="1.5433"/>
	<circle cx="2300.1265" cy="1304.5706" r="1.637"/>
	<circle cx="2275.8516" cy="1314.8604" r="2.1204"/>
	<circle cx="2287.7488" cy="1318.9297" r="1.5289"/>
	<circle cx="2279.4697" cy="1321.9578" r="1.4993"/>
	<circle cx="2284.9631" cy="1321.0688" r="1.0805"/>
	<circle cx="2294.9707" cy="1313.7832" r="1.3101"/>
	<circle cx="2291.5967" cy="1305.3621" r="1"/>
	<circle cx="2296.252" cy="1311.4539" r="1.1034"/>
	<circle cx="2280.6067" cy="1295.3387" r="1.0295"/>
	<circle cx="2278.8594" cy="1301.7708" r="1"/>
	<circle cx="2289.6951" cy="1306.365" r="1.0373"/>
	<circle cx="2535.0542" cy="1274.6537" r="8.7012"/>
	<circle cx="2472.0466" cy="1319.2272" r="5.9427"/>
	<circle cx="2525.3376" cy="1286.21" r="6.3971"/>
	<circle cx="2438.0503" cy="1341.0833" r="6.6401"/>
	<circle cx="2456.0781" cy="1328.3986" r="5.8096"/>
	<circle cx="2426.7292" cy="1346.5959" r="5.952"/>
	<circle cx="2485.7737" cy="1311.425" r="4.2346"/>
	<circle cx="2446.4719" cy="1333.0618" r="4.8686"/>
	<circle cx="2534.1387" cy="1261.9836" r="4.0018"/>
	<circle cx="2490.6025" cy="1304.8162" r="3.9505"/>
	<circle cx="2535.6819" cy="1245.438" r="4.034"/>
	<circle cx="587.326" cy="199.3251" r="3.5547"/>
	<circle cx="581.8077" cy="203.2179" r="2.9067"/>
	<circle cx="592.9074" cy="195.9968" r="2.48"/>
	<circle cx="641.6652" cy="198.3456" r="3.8784"/>
	<circle cx="634.0991" cy="196.533" r="3.8663"/>
	<circle cx="647.2491" cy="201.3966" r="2.4846"/>
	<circle cx="628.5632" cy="197.5039" r="1.7162"/>
	<circle cx="651.5652" cy="200.9163" r="1.6722"/>
	<circle cx="670.8433" cy="199.8339" r="3.8529"/>
	<circle cx="665.3561" cy="196.0236" r="2.8275"/>
	<circle cx="665.4951" cy="201.3682" r="1.711"/>
	<circle cx="669.7605" cy="193.5009" r="1.9355"/>
	<circle cx="672.7675" cy="192.8495" r="1.1412"/>
	<circle cx="668.2142" cy="204.3098" r="1.3032"/>
	<circle cx="672.8325" cy="195.1666" r="1.1768"/>
</g>
</svg>
